<svg width="321" height="256" viewBox="0 0 321 256" fill="none" xmlns="http://www.w3.org/2000/svg">
<path d="M226.714 21.056V10.808H236.962V21.056H226.714Z" fill="#2F80ED"/>
<path d="M275.165 18.746V17.78L280.079 10.976H281.605V17.64H283.005V18.746H281.605V21H280.345V18.746H275.165ZM280.401 12.306L276.635 17.64H280.401V12.306ZM284.748 13.16C284.748 12.5253 284.939 12.0213 285.322 11.648C285.705 11.2653 286.195 11.074 286.792 11.074C287.389 11.074 287.879 11.2653 288.262 11.648C288.645 12.0213 288.836 12.5253 288.836 13.16C288.836 13.804 288.645 14.3173 288.262 14.7C287.879 15.0733 287.389 15.26 286.792 15.26C286.195 15.26 285.705 15.0733 285.322 14.7C284.939 14.3173 284.748 13.804 284.748 13.16ZM292.924 11.228L287.254 21H285.994L291.664 11.228H292.924ZM286.792 11.858C286.475 11.858 286.223 11.97 286.036 12.194C285.859 12.4087 285.77 12.7307 285.77 13.16C285.77 13.5893 285.859 13.916 286.036 14.14C286.223 14.364 286.475 14.476 286.792 14.476C287.109 14.476 287.361 14.364 287.548 14.14C287.735 13.9067 287.828 13.58 287.828 13.16C287.828 12.7307 287.735 12.4087 287.548 12.194C287.361 11.97 287.109 11.858 286.792 11.858ZM290.11 19.068C290.11 18.424 290.301 17.9153 290.684 17.542C291.067 17.1593 291.557 16.968 292.154 16.968C292.751 16.968 293.237 17.1593 293.61 17.542C293.993 17.9153 294.184 18.424 294.184 19.068C294.184 19.7027 293.993 20.2113 293.61 20.594C293.237 20.9767 292.751 21.168 292.154 21.168C291.557 21.168 291.067 20.9813 290.684 20.608C290.301 20.2253 290.11 19.712 290.11 19.068ZM292.14 17.766C291.823 17.766 291.571 17.878 291.384 18.102C291.197 18.3167 291.104 18.6387 291.104 19.068C291.104 19.488 291.197 19.81 291.384 20.034C291.571 20.2487 291.823 20.356 292.14 20.356C292.457 20.356 292.709 20.2487 292.896 20.034C293.083 19.81 293.176 19.488 293.176 19.068C293.176 18.6387 293.083 18.3167 292.896 18.102C292.709 17.878 292.457 17.766 292.14 17.766ZM273.442 44.04V42.878H276.074V53H274.786V44.04H273.442ZM278.859 51.978C280.044 51.026 280.973 50.2467 281.645 49.64C282.317 49.024 282.881 48.3847 283.339 47.722C283.805 47.05 284.039 46.392 284.039 45.748C284.039 45.1413 283.889 44.6653 283.591 44.32C283.301 43.9653 282.83 43.788 282.177 43.788C281.542 43.788 281.047 43.9887 280.693 44.39C280.347 44.782 280.161 45.3093 280.133 45.972H278.901C278.938 44.9267 279.255 44.1193 279.853 43.55C280.45 42.9807 281.22 42.696 282.163 42.696C283.124 42.696 283.885 42.962 284.445 43.494C285.014 44.026 285.299 44.7587 285.299 45.692C285.299 46.4667 285.065 47.2227 284.599 47.96C284.141 48.688 283.619 49.332 283.031 49.892C282.443 50.4427 281.691 51.0867 280.777 51.824H285.593V52.888H278.859V51.978ZM287.535 45.16C287.535 44.5253 287.727 44.0213 288.109 43.648C288.492 43.2653 288.982 43.074 289.579 43.074C290.177 43.074 290.667 43.2653 291.049 43.648C291.432 44.0213 291.623 44.5253 291.623 45.16C291.623 45.804 291.432 46.3173 291.049 46.7C290.667 47.0733 290.177 47.26 289.579 47.26C288.982 47.26 288.492 47.0733 288.109 46.7C287.727 46.3173 287.535 45.804 287.535 45.16ZM295.711 43.228L290.041 53H288.781L294.451 43.228H295.711ZM289.579 43.858C289.262 43.858 289.01 43.97 288.823 44.194C288.646 44.4087 288.557 44.7307 288.557 45.16C288.557 45.5893 288.646 45.916 288.823 46.14C289.01 46.364 289.262 46.476 289.579 46.476C289.897 46.476 290.149 46.364 290.335 46.14C290.522 45.9067 290.615 45.58 290.615 45.16C290.615 44.7307 290.522 44.4087 290.335 44.194C290.149 43.97 289.897 43.858 289.579 43.858ZM292.897 51.068C292.897 50.424 293.089 49.9153 293.471 49.542C293.854 49.1593 294.344 48.968 294.941 48.968C295.539 48.968 296.024 49.1593 296.397 49.542C296.78 49.9153 296.971 50.424 296.971 51.068C296.971 51.7027 296.78 52.2113 296.397 52.594C296.024 52.9767 295.539 53.168 294.941 53.168C294.344 53.168 293.854 52.9813 293.471 52.608C293.089 52.2253 292.897 51.712 292.897 51.068ZM294.927 49.766C294.61 49.766 294.358 49.878 294.171 50.102C293.985 50.3167 293.891 50.6387 293.891 51.068C293.891 51.488 293.985 51.81 294.171 52.034C294.358 52.2487 294.61 52.356 294.927 52.356C295.245 52.356 295.497 52.2487 295.683 52.034C295.87 51.81 295.963 51.488 295.963 51.068C295.963 50.6387 295.87 50.3167 295.683 50.102C295.497 49.878 295.245 49.766 294.927 49.766ZM276.775 79.736C276.252 79.5307 275.851 79.232 275.571 78.84C275.291 78.448 275.151 77.972 275.151 77.412C275.151 76.908 275.277 76.4553 275.529 76.054C275.781 75.6433 276.154 75.3213 276.649 75.088C277.153 74.8453 277.759 74.724 278.469 74.724C279.178 74.724 279.78 74.8453 280.275 75.088C280.779 75.3213 281.157 75.6433 281.409 76.054C281.67 76.4553 281.801 76.908 281.801 77.412C281.801 77.9533 281.656 78.4293 281.367 78.84C281.077 79.2413 280.681 79.54 280.177 79.736C280.755 79.9133 281.213 80.226 281.549 80.674C281.894 81.1127 282.067 81.6447 282.067 82.27C282.067 82.8767 281.917 83.4087 281.619 83.866C281.32 84.314 280.895 84.664 280.345 84.916C279.803 85.1587 279.178 85.28 278.469 85.28C277.759 85.28 277.134 85.1587 276.593 84.916C276.061 84.664 275.645 84.314 275.347 83.866C275.048 83.4087 274.899 82.8767 274.899 82.27C274.899 81.6447 275.067 81.108 275.403 80.66C275.739 80.212 276.196 79.904 276.775 79.736ZM280.569 77.566C280.569 76.9967 280.382 76.558 280.009 76.25C279.635 75.942 279.122 75.788 278.469 75.788C277.825 75.788 277.316 75.942 276.943 76.25C276.569 76.558 276.383 77.0013 276.383 77.58C276.383 78.1027 276.574 78.5227 276.957 78.84C277.349 79.1573 277.853 79.316 278.469 79.316C279.094 79.316 279.598 79.1573 279.981 78.84C280.373 78.5133 280.569 78.0887 280.569 77.566ZM278.469 80.296C277.778 80.296 277.213 80.4593 276.775 80.786C276.336 81.1033 276.117 81.584 276.117 82.228C276.117 82.8253 276.327 83.306 276.747 83.67C277.176 84.034 277.75 84.216 278.469 84.216C279.187 84.216 279.757 84.034 280.177 83.67C280.597 83.306 280.807 82.8253 280.807 82.228C280.807 81.6027 280.592 81.1267 280.163 80.8C279.733 80.464 279.169 80.296 278.469 80.296ZM284.229 77.16C284.229 76.5253 284.42 76.0213 284.803 75.648C285.185 75.2653 285.675 75.074 286.273 75.074C286.87 75.074 287.36 75.2653 287.743 75.648C288.125 76.0213 288.317 76.5253 288.317 77.16C288.317 77.804 288.125 78.3173 287.743 78.7C287.36 79.0733 286.87 79.26 286.273 79.26C285.675 79.26 285.185 79.0733 284.803 78.7C284.42 78.3173 284.229 77.804 284.229 77.16ZM292.405 75.228L286.735 85H285.475L291.145 75.228H292.405ZM286.273 75.858C285.955 75.858 285.703 75.97 285.517 76.194C285.339 76.4087 285.251 76.7307 285.251 77.16C285.251 77.5893 285.339 77.916 285.517 78.14C285.703 78.364 285.955 78.476 286.273 78.476C286.59 78.476 286.842 78.364 287.029 78.14C287.215 77.9067 287.309 77.58 287.309 77.16C287.309 76.7307 287.215 76.4087 287.029 76.194C286.842 75.97 286.59 75.858 286.273 75.858ZM289.591 83.068C289.591 82.424 289.782 81.9153 290.165 81.542C290.547 81.1593 291.037 80.968 291.635 80.968C292.232 80.968 292.717 81.1593 293.091 81.542C293.473 81.9153 293.665 82.424 293.665 83.068C293.665 83.7027 293.473 84.2113 293.091 84.594C292.717 84.9767 292.232 85.168 291.635 85.168C291.037 85.168 290.547 84.9813 290.165 84.608C289.782 84.2253 289.591 83.712 289.591 83.068ZM291.621 81.766C291.303 81.766 291.051 81.878 290.865 82.102C290.678 82.3167 290.585 82.6387 290.585 83.068C290.585 83.488 290.678 83.81 290.865 84.034C291.051 84.2487 291.303 84.356 291.621 84.356C291.938 84.356 292.19 84.2487 292.377 84.034C292.563 83.81 292.657 83.488 292.657 83.068C292.657 82.6387 292.563 82.3167 292.377 82.102C292.19 81.878 291.938 81.766 291.621 81.766ZM289.53 108.04V106.878H292.162V117H290.874V108.04H289.53ZM294.946 115.978C296.132 115.026 297.06 114.247 297.732 113.64C298.404 113.024 298.969 112.385 299.426 111.722C299.893 111.05 300.126 110.392 300.126 109.748C300.126 109.141 299.977 108.665 299.678 108.32C299.389 107.965 298.918 107.788 298.264 107.788C297.63 107.788 297.135 107.989 296.78 108.39C296.435 108.782 296.248 109.309 296.22 109.972H294.988C295.026 108.927 295.343 108.119 295.94 107.55C296.538 106.981 297.308 106.696 298.25 106.696C299.212 106.696 299.972 106.962 300.532 107.494C301.102 108.026 301.386 108.759 301.386 109.692C301.386 110.467 301.153 111.223 300.686 111.96C300.229 112.688 299.706 113.332 299.118 113.892C298.53 114.443 297.779 115.087 296.864 115.824H301.68V116.888H294.946V115.978ZM303.623 109.16C303.623 108.525 303.814 108.021 304.197 107.648C304.58 107.265 305.07 107.074 305.667 107.074C306.264 107.074 306.754 107.265 307.137 107.648C307.52 108.021 307.711 108.525 307.711 109.16C307.711 109.804 307.52 110.317 307.137 110.7C306.754 111.073 306.264 111.26 305.667 111.26C305.07 111.26 304.58 111.073 304.197 110.7C303.814 110.317 303.623 109.804 303.623 109.16ZM311.799 107.228L306.129 117H304.869L310.539 107.228H311.799ZM305.667 107.858C305.35 107.858 305.098 107.97 304.911 108.194C304.734 108.409 304.645 108.731 304.645 109.16C304.645 109.589 304.734 109.916 304.911 110.14C305.098 110.364 305.35 110.476 305.667 110.476C305.984 110.476 306.236 110.364 306.423 110.14C306.61 109.907 306.703 109.58 306.703 109.16C306.703 108.731 306.61 108.409 306.423 108.194C306.236 107.97 305.984 107.858 305.667 107.858ZM308.985 115.068C308.985 114.424 309.176 113.915 309.559 113.542C309.942 113.159 310.432 112.968 311.029 112.968C311.626 112.968 312.112 113.159 312.485 113.542C312.868 113.915 313.059 114.424 313.059 115.068C313.059 115.703 312.868 116.211 312.485 116.594C312.112 116.977 311.626 117.168 311.029 117.168C310.432 117.168 309.942 116.981 309.559 116.608C309.176 116.225 308.985 115.712 308.985 115.068ZM311.015 113.766C310.698 113.766 310.446 113.878 310.259 114.102C310.072 114.317 309.979 114.639 309.979 115.068C309.979 115.488 310.072 115.81 310.259 116.034C310.446 116.249 310.698 116.356 311.015 116.356C311.332 116.356 311.584 116.249 311.771 116.034C311.958 115.81 312.051 115.488 312.051 115.068C312.051 114.639 311.958 114.317 311.771 114.102C311.584 113.878 311.332 113.766 311.015 113.766ZM295.778 140.04V138.878H298.41V149H297.122V140.04H295.778ZM301.32 141.426C301.386 140.567 301.717 139.895 302.314 139.41C302.912 138.925 303.686 138.682 304.638 138.682C305.273 138.682 305.819 138.799 306.276 139.032C306.743 139.256 307.093 139.564 307.326 139.956C307.569 140.348 307.69 140.791 307.69 141.286C307.69 141.865 307.522 142.364 307.186 142.784C306.86 143.204 306.43 143.475 305.898 143.596V143.666C306.505 143.815 306.986 144.109 307.34 144.548C307.695 144.987 307.872 145.561 307.872 146.27C307.872 146.802 307.751 147.283 307.508 147.712C307.266 148.132 306.902 148.463 306.416 148.706C305.931 148.949 305.348 149.07 304.666 149.07C303.677 149.07 302.865 148.813 302.23 148.3C301.596 147.777 301.241 147.04 301.166 146.088H302.398C302.464 146.648 302.692 147.105 303.084 147.46C303.476 147.815 303.999 147.992 304.652 147.992C305.306 147.992 305.8 147.824 306.136 147.488C306.482 147.143 306.654 146.699 306.654 146.158C306.654 145.458 306.421 144.954 305.954 144.646C305.488 144.338 304.783 144.184 303.84 144.184H303.518V143.12H303.854C304.713 143.111 305.362 142.971 305.8 142.7C306.239 142.42 306.458 141.991 306.458 141.412C306.458 140.917 306.295 140.521 305.968 140.222C305.651 139.923 305.194 139.774 304.596 139.774C304.018 139.774 303.551 139.923 303.196 140.222C302.842 140.521 302.632 140.922 302.566 141.426H301.32ZM310.063 141.16C310.063 140.525 310.254 140.021 310.637 139.648C311.019 139.265 311.509 139.074 312.107 139.074C312.704 139.074 313.194 139.265 313.577 139.648C313.959 140.021 314.151 140.525 314.151 141.16C314.151 141.804 313.959 142.317 313.577 142.7C313.194 143.073 312.704 143.26 312.107 143.26C311.509 143.26 311.019 143.073 310.637 142.7C310.254 142.317 310.063 141.804 310.063 141.16ZM318.239 139.228L312.569 149H311.309L316.979 139.228H318.239ZM312.107 139.858C311.789 139.858 311.537 139.97 311.351 140.194C311.173 140.409 311.085 140.731 311.085 141.16C311.085 141.589 311.173 141.916 311.351 142.14C311.537 142.364 311.789 142.476 312.107 142.476C312.424 142.476 312.676 142.364 312.863 142.14C313.049 141.907 313.143 141.58 313.143 141.16C313.143 140.731 313.049 140.409 312.863 140.194C312.676 139.97 312.424 139.858 312.107 139.858ZM315.425 147.068C315.425 146.424 315.616 145.915 315.999 145.542C316.381 145.159 316.871 144.968 317.469 144.968C318.066 144.968 318.551 145.159 318.925 145.542C319.307 145.915 319.499 146.424 319.499 147.068C319.499 147.703 319.307 148.211 318.925 148.594C318.551 148.977 318.066 149.168 317.469 149.168C316.871 149.168 316.381 148.981 315.999 148.608C315.616 148.225 315.425 147.712 315.425 147.068ZM317.455 145.766C317.137 145.766 316.885 145.878 316.699 146.102C316.512 146.317 316.419 146.639 316.419 147.068C316.419 147.488 316.512 147.81 316.699 148.034C316.885 148.249 317.137 148.356 317.455 148.356C317.772 148.356 318.024 148.249 318.211 148.034C318.397 147.81 318.491 147.488 318.491 147.068C318.491 146.639 318.397 146.317 318.211 146.102C318.024 145.878 317.772 145.766 317.455 145.766ZM288.331 179.978C289.517 179.026 290.445 178.247 291.117 177.64C291.789 177.024 292.354 176.385 292.811 175.722C293.278 175.05 293.511 174.392 293.511 173.748C293.511 173.141 293.362 172.665 293.063 172.32C292.774 171.965 292.303 171.788 291.649 171.788C291.015 171.788 290.52 171.989 290.165 172.39C289.82 172.782 289.633 173.309 289.605 173.972H288.373C288.411 172.927 288.728 172.119 289.325 171.55C289.923 170.981 290.693 170.696 291.635 170.696C292.597 170.696 293.357 170.962 293.917 171.494C294.487 172.026 294.771 172.759 294.771 173.692C294.771 174.467 294.538 175.223 294.071 175.96C293.614 176.688 293.091 177.332 292.503 177.892C291.915 178.443 291.164 179.087 290.249 179.824H295.065V180.888H288.331V179.978ZM303.742 171.984H298.828V175.176C299.043 174.877 299.36 174.635 299.78 174.448C300.2 174.252 300.653 174.154 301.138 174.154C301.913 174.154 302.543 174.317 303.028 174.644C303.513 174.961 303.859 175.377 304.064 175.89C304.279 176.394 304.386 176.931 304.386 177.5C304.386 178.172 304.26 178.774 304.008 179.306C303.756 179.838 303.369 180.258 302.846 180.566C302.333 180.874 301.693 181.028 300.928 181.028C299.948 181.028 299.155 180.776 298.548 180.272C297.941 179.768 297.573 179.096 297.442 178.256H298.688C298.809 178.788 299.066 179.203 299.458 179.502C299.85 179.801 300.345 179.95 300.942 179.95C301.679 179.95 302.235 179.731 302.608 179.292C302.981 178.844 303.168 178.256 303.168 177.528C303.168 176.8 302.981 176.24 302.608 175.848C302.235 175.447 301.684 175.246 300.956 175.246C300.461 175.246 300.027 175.367 299.654 175.61C299.29 175.843 299.024 176.165 298.856 176.576H297.652V170.864H303.742V171.984ZM306.549 173.16C306.549 172.525 306.74 172.021 307.123 171.648C307.506 171.265 307.996 171.074 308.593 171.074C309.19 171.074 309.68 171.265 310.063 171.648C310.446 172.021 310.637 172.525 310.637 173.16C310.637 173.804 310.446 174.317 310.063 174.7C309.68 175.073 309.19 175.26 308.593 175.26C307.996 175.26 307.506 175.073 307.123 174.7C306.74 174.317 306.549 173.804 306.549 173.16ZM314.725 171.228L309.055 181H307.795L313.465 171.228H314.725ZM308.593 171.858C308.276 171.858 308.024 171.97 307.837 172.194C307.66 172.409 307.571 172.731 307.571 173.16C307.571 173.589 307.66 173.916 307.837 174.14C308.024 174.364 308.276 174.476 308.593 174.476C308.91 174.476 309.162 174.364 309.349 174.14C309.536 173.907 309.629 173.58 309.629 173.16C309.629 172.731 309.536 172.409 309.349 172.194C309.162 171.97 308.91 171.858 308.593 171.858ZM311.911 179.068C311.911 178.424 312.102 177.915 312.485 177.542C312.868 177.159 313.358 176.968 313.955 176.968C314.552 176.968 315.038 177.159 315.411 177.542C315.794 177.915 315.985 178.424 315.985 179.068C315.985 179.703 315.794 180.211 315.411 180.594C315.038 180.977 314.552 181.168 313.955 181.168C313.358 181.168 312.868 180.981 312.485 180.608C312.102 180.225 311.911 179.712 311.911 179.068ZM313.941 177.766C313.624 177.766 313.372 177.878 313.185 178.102C312.998 178.317 312.905 178.639 312.905 179.068C312.905 179.488 312.998 179.81 313.185 180.034C313.372 180.249 313.624 180.356 313.941 180.356C314.258 180.356 314.51 180.249 314.697 180.034C314.884 179.81 314.977 179.488 314.977 179.068C314.977 178.639 314.884 178.317 314.697 178.102C314.51 177.878 314.258 177.766 313.941 177.766ZM272.907 204.04V202.878H275.539V213H274.251V204.04H272.907ZM278.323 211.978C279.509 211.026 280.437 210.247 281.109 209.64C281.781 209.024 282.346 208.385 282.803 207.722C283.27 207.05 283.503 206.392 283.503 205.748C283.503 205.141 283.354 204.665 283.055 204.32C282.766 203.965 282.295 203.788 281.641 203.788C281.007 203.788 280.512 203.989 280.157 204.39C279.812 204.782 279.625 205.309 279.597 205.972H278.365C278.403 204.927 278.72 204.119 279.317 203.55C279.915 202.981 280.685 202.696 281.627 202.696C282.589 202.696 283.349 202.962 283.909 203.494C284.479 204.026 284.763 204.759 284.763 205.692C284.763 206.467 284.53 207.223 284.063 207.96C283.606 208.688 283.083 209.332 282.495 209.892C281.907 210.443 281.156 211.087 280.241 211.824H285.057V212.888H278.323V211.978ZM287 205.16C287 204.525 287.191 204.021 287.574 203.648C287.957 203.265 288.447 203.074 289.044 203.074C289.641 203.074 290.131 203.265 290.514 203.648C290.897 204.021 291.088 204.525 291.088 205.16C291.088 205.804 290.897 206.317 290.514 206.7C290.131 207.073 289.641 207.26 289.044 207.26C288.447 207.26 287.957 207.073 287.574 206.7C287.191 206.317 287 205.804 287 205.16ZM295.176 203.228L289.506 213H288.246L293.916 203.228H295.176ZM289.044 203.858C288.727 203.858 288.475 203.97 288.288 204.194C288.111 204.409 288.022 204.731 288.022 205.16C288.022 205.589 288.111 205.916 288.288 206.14C288.475 206.364 288.727 206.476 289.044 206.476C289.361 206.476 289.613 206.364 289.8 206.14C289.987 205.907 290.08 205.58 290.08 205.16C290.08 204.731 289.987 204.409 289.8 204.194C289.613 203.97 289.361 203.858 289.044 203.858ZM292.362 211.068C292.362 210.424 292.553 209.915 292.936 209.542C293.319 209.159 293.809 208.968 294.406 208.968C295.003 208.968 295.489 209.159 295.862 209.542C296.245 209.915 296.436 210.424 296.436 211.068C296.436 211.703 296.245 212.211 295.862 212.594C295.489 212.977 295.003 213.168 294.406 213.168C293.809 213.168 293.319 212.981 292.936 212.608C292.553 212.225 292.362 211.712 292.362 211.068ZM294.392 209.766C294.075 209.766 293.823 209.878 293.636 210.102C293.449 210.317 293.356 210.639 293.356 211.068C293.356 211.488 293.449 211.81 293.636 212.034C293.823 212.249 294.075 212.356 294.392 212.356C294.709 212.356 294.961 212.249 295.148 212.034C295.335 211.81 295.428 211.488 295.428 211.068C295.428 210.639 295.335 210.317 295.148 210.102C294.961 209.878 294.709 209.766 294.392 209.766ZM288.561 236.04V234.878H291.193V245H289.905V236.04H288.561ZM294.104 237.426C294.169 236.567 294.5 235.895 295.098 235.41C295.695 234.925 296.47 234.682 297.422 234.682C298.056 234.682 298.602 234.799 299.06 235.032C299.526 235.256 299.876 235.564 300.11 235.956C300.352 236.348 300.474 236.791 300.474 237.286C300.474 237.865 300.306 238.364 299.97 238.784C299.643 239.204 299.214 239.475 298.682 239.596V239.666C299.288 239.815 299.769 240.109 300.124 240.548C300.478 240.987 300.656 241.561 300.656 242.27C300.656 242.802 300.534 243.283 300.292 243.712C300.049 244.132 299.685 244.463 299.2 244.706C298.714 244.949 298.131 245.07 297.45 245.07C296.46 245.07 295.648 244.813 295.014 244.3C294.379 243.777 294.024 243.04 293.95 242.088H295.182C295.247 242.648 295.476 243.105 295.868 243.46C296.26 243.815 296.782 243.992 297.436 243.992C298.089 243.992 298.584 243.824 298.92 243.488C299.265 243.143 299.438 242.699 299.438 242.158C299.438 241.458 299.204 240.954 298.738 240.646C298.271 240.338 297.566 240.184 296.624 240.184H296.302V239.12H296.638C297.496 239.111 298.145 238.971 298.584 238.7C299.022 238.42 299.242 237.991 299.242 237.412C299.242 236.917 299.078 236.521 298.752 236.222C298.434 235.923 297.977 235.774 297.38 235.774C296.801 235.774 296.334 235.923 295.98 236.222C295.625 236.521 295.415 236.922 295.35 237.426H294.104ZM302.846 237.16C302.846 236.525 303.037 236.021 303.42 235.648C303.802 235.265 304.292 235.074 304.89 235.074C305.487 235.074 305.977 235.265 306.36 235.648C306.742 236.021 306.934 236.525 306.934 237.16C306.934 237.804 306.742 238.317 306.36 238.7C305.977 239.073 305.487 239.26 304.89 239.26C304.292 239.26 303.802 239.073 303.42 238.7C303.037 238.317 302.846 237.804 302.846 237.16ZM311.022 235.228L305.352 245H304.092L309.762 235.228H311.022ZM304.89 235.858C304.572 235.858 304.32 235.97 304.134 236.194C303.956 236.409 303.868 236.731 303.868 237.16C303.868 237.589 303.956 237.916 304.134 238.14C304.32 238.364 304.572 238.476 304.89 238.476C305.207 238.476 305.459 238.364 305.646 238.14C305.832 237.907 305.926 237.58 305.926 237.16C305.926 236.731 305.832 236.409 305.646 236.194C305.459 235.97 305.207 235.858 304.89 235.858ZM308.208 243.068C308.208 242.424 308.399 241.915 308.782 241.542C309.164 241.159 309.654 240.968 310.252 240.968C310.849 240.968 311.334 241.159 311.708 241.542C312.09 241.915 312.282 242.424 312.282 243.068C312.282 243.703 312.09 244.211 311.708 244.594C311.334 244.977 310.849 245.168 310.252 245.168C309.654 245.168 309.164 244.981 308.782 244.608C308.399 244.225 308.208 243.712 308.208 243.068ZM310.238 241.766C309.92 241.766 309.668 241.878 309.482 242.102C309.295 242.317 309.202 242.639 309.202 243.068C309.202 243.488 309.295 243.81 309.482 244.034C309.668 244.249 309.92 244.356 310.238 244.356C310.555 244.356 310.807 244.249 310.994 244.034C311.18 243.81 311.274 243.488 311.274 243.068C311.274 242.639 311.18 242.317 310.994 242.102C310.807 241.878 310.555 241.766 310.238 241.766Z" fill="#FCFCFC"/>
<path d="M249.502 11.242V12.278H245.26V15.568H248.704V16.604H245.26V21H243.986V11.242H249.502ZM255.137 21.126C254.418 21.126 253.765 20.9627 253.177 20.636C252.598 20.3093 252.141 19.8473 251.805 19.25C251.478 18.6433 251.315 17.9433 251.315 17.15C251.315 16.366 251.483 15.6753 251.819 15.078C252.164 14.4713 252.631 14.0093 253.219 13.692C253.807 13.3653 254.465 13.202 255.193 13.202C255.921 13.202 256.579 13.3653 257.167 13.692C257.755 14.0093 258.217 14.4667 258.553 15.064C258.898 15.6613 259.071 16.3567 259.071 17.15C259.071 17.9433 258.894 18.6433 258.539 19.25C258.194 19.8473 257.722 20.3093 257.125 20.636C256.528 20.9627 255.865 21.126 255.137 21.126ZM255.137 20.006C255.594 20.006 256.024 19.8987 256.425 19.684C256.826 19.4693 257.148 19.1473 257.391 18.718C257.643 18.2887 257.769 17.766 257.769 17.15C257.769 16.534 257.648 16.0113 257.405 15.582C257.162 15.1527 256.845 14.8353 256.453 14.63C256.061 14.4153 255.636 14.308 255.179 14.308C254.712 14.308 254.283 14.4153 253.891 14.63C253.508 14.8353 253.2 15.1527 252.967 15.582C252.734 16.0113 252.617 16.534 252.617 17.15C252.617 17.7753 252.729 18.3027 252.953 18.732C253.186 19.1613 253.494 19.4833 253.877 19.698C254.26 19.9033 254.68 20.006 255.137 20.006ZM264.842 21.126C264.123 21.126 263.47 20.9627 262.882 20.636C262.303 20.3093 261.846 19.8473 261.51 19.25C261.183 18.6433 261.02 17.9433 261.02 17.15C261.02 16.366 261.188 15.6753 261.524 15.078C261.869 14.4713 262.336 14.0093 262.924 13.692C263.512 13.3653 264.17 13.202 264.898 13.202C265.626 13.202 266.284 13.3653 266.872 13.692C267.46 14.0093 267.922 14.4667 268.258 15.064C268.603 15.6613 268.776 16.3567 268.776 17.15C268.776 17.9433 268.599 18.6433 268.244 19.25C267.899 19.8473 267.427 20.3093 266.83 20.636C266.233 20.9627 265.57 21.126 264.842 21.126ZM264.842 20.006C265.299 20.006 265.729 19.8987 266.13 19.684C266.531 19.4693 266.853 19.1473 267.096 18.718C267.348 18.2887 267.474 17.766 267.474 17.15C267.474 16.534 267.353 16.0113 267.11 15.582C266.867 15.1527 266.55 14.8353 266.158 14.63C265.766 14.4153 265.341 14.308 264.884 14.308C264.417 14.308 263.988 14.4153 263.596 14.63C263.213 14.8353 262.905 15.1527 262.672 15.582C262.439 16.0113 262.322 16.534 262.322 17.15C262.322 17.7753 262.434 18.3027 262.658 18.732C262.891 19.1613 263.199 19.4833 263.582 19.698C263.965 19.9033 264.385 20.006 264.842 20.006ZM248.872 47.974C249.227 48.03 249.549 48.1747 249.838 48.408C250.137 48.6413 250.37 48.9307 250.538 49.276C250.716 49.6213 250.804 49.99 250.804 50.382C250.804 50.8767 250.678 51.3247 250.426 51.726C250.174 52.118 249.806 52.4307 249.32 52.664C248.844 52.888 248.28 53 247.626 53H243.986V43.242H247.486C248.149 43.242 248.714 43.354 249.18 43.578C249.647 43.7927 249.997 44.0867 250.23 44.46C250.464 44.8333 250.58 45.2533 250.58 45.72C250.58 46.2987 250.422 46.7793 250.104 47.162C249.796 47.5353 249.386 47.806 248.872 47.974ZM245.26 47.456H247.402C248 47.456 248.462 47.316 248.788 47.036C249.115 46.756 249.278 46.3687 249.278 45.874C249.278 45.3793 249.115 44.992 248.788 44.712C248.462 44.432 247.99 44.292 247.374 44.292H245.26V47.456ZM247.514 51.95C248.149 51.95 248.644 51.8007 248.998 51.502C249.353 51.2033 249.53 50.788 249.53 50.256C249.53 49.7147 249.344 49.29 248.97 48.982C248.597 48.6647 248.098 48.506 247.472 48.506H245.26V51.95H247.514ZM252.846 49.136C252.846 48.352 253.005 47.666 253.322 47.078C253.639 46.4807 254.073 46.0187 254.624 45.692C255.184 45.3653 255.805 45.202 256.486 45.202C257.158 45.202 257.741 45.3467 258.236 45.636C258.731 45.9253 259.099 46.2893 259.342 46.728V45.328H260.63V53H259.342V51.572C259.09 52.02 258.712 52.3933 258.208 52.692C257.713 52.9813 257.135 53.126 256.472 53.126C255.791 53.126 255.175 52.958 254.624 52.622C254.073 52.286 253.639 51.8147 253.322 51.208C253.005 50.6013 252.846 49.9107 252.846 49.136ZM259.342 49.15C259.342 48.5713 259.225 48.0673 258.992 47.638C258.759 47.2087 258.441 46.882 258.04 46.658C257.648 46.4247 257.214 46.308 256.738 46.308C256.262 46.308 255.828 46.42 255.436 46.644C255.044 46.868 254.731 47.1947 254.498 47.624C254.265 48.0533 254.148 48.5573 254.148 49.136C254.148 49.724 254.265 50.2373 254.498 50.676C254.731 51.1053 255.044 51.4367 255.436 51.67C255.828 51.894 256.262 52.006 256.738 52.006C257.214 52.006 257.648 51.894 258.04 51.67C258.441 51.4367 258.759 51.1053 258.992 50.676C259.225 50.2373 259.342 49.7287 259.342 49.15ZM264.807 46.574C265.031 46.1353 265.348 45.7947 265.759 45.552C266.179 45.3093 266.688 45.188 267.285 45.188V46.504H266.949C265.521 46.504 264.807 47.2787 264.807 48.828V53H263.533V45.328H264.807V46.574ZM248.872 79.974C249.227 80.03 249.549 80.1747 249.838 80.408C250.137 80.6413 250.37 80.9307 250.538 81.276C250.716 81.6213 250.804 81.99 250.804 82.382C250.804 82.8767 250.678 83.3247 250.426 83.726C250.174 84.118 249.806 84.4307 249.32 84.664C248.844 84.888 248.28 85 247.626 85H243.986V75.242H247.486C248.149 75.242 248.714 75.354 249.18 75.578C249.647 75.7927 249.997 76.0867 250.23 76.46C250.464 76.8333 250.58 77.2533 250.58 77.72C250.58 78.2987 250.422 78.7793 250.104 79.162C249.796 79.5353 249.386 79.806 248.872 79.974ZM245.26 79.456H247.402C248 79.456 248.462 79.316 248.788 79.036C249.115 78.756 249.278 78.3687 249.278 77.874C249.278 77.3793 249.115 76.992 248.788 76.712C248.462 76.432 247.99 76.292 247.374 76.292H245.26V79.456ZM247.514 83.95C248.149 83.95 248.644 83.8007 248.998 83.502C249.353 83.2033 249.53 82.788 249.53 82.256C249.53 81.7147 249.344 81.29 248.97 80.982C248.597 80.6647 248.098 80.506 247.472 80.506H245.26V83.95H247.514ZM252.846 81.136C252.846 80.352 253.005 79.666 253.322 79.078C253.639 78.4807 254.073 78.0187 254.624 77.692C255.184 77.3653 255.805 77.202 256.486 77.202C257.158 77.202 257.741 77.3467 258.236 77.636C258.731 77.9253 259.099 78.2893 259.342 78.728V77.328H260.63V85H259.342V83.572C259.09 84.02 258.712 84.3933 258.208 84.692C257.713 84.9813 257.135 85.126 256.472 85.126C255.791 85.126 255.175 84.958 254.624 84.622C254.073 84.286 253.639 83.8147 253.322 83.208C253.005 82.6013 252.846 81.9107 252.846 81.136ZM259.342 81.15C259.342 80.5713 259.225 80.0673 258.992 79.638C258.759 79.2087 258.441 78.882 258.04 78.658C257.648 78.4247 257.214 78.308 256.738 78.308C256.262 78.308 255.828 78.42 255.436 78.644C255.044 78.868 254.731 79.1947 254.498 79.624C254.265 80.0533 254.148 80.5573 254.148 81.136C254.148 81.724 254.265 82.2373 254.498 82.676C254.731 83.1053 255.044 83.4367 255.436 83.67C255.828 83.894 256.262 84.006 256.738 84.006C257.214 84.006 257.648 83.894 258.04 83.67C258.441 83.4367 258.759 83.1053 258.992 82.676C259.225 82.2373 259.342 81.7287 259.342 81.15ZM264.485 83.95H268.251V85H263.029V83.95L266.753 78.364H263.057V77.328H268.223V78.364L264.485 83.95ZM245.26 115.964H248.676V117H243.986V107.242H245.26V115.964ZM254.125 117.126C253.407 117.126 252.753 116.963 252.165 116.636C251.587 116.309 251.129 115.847 250.793 115.25C250.467 114.643 250.303 113.943 250.303 113.15C250.303 112.366 250.471 111.675 250.807 111.078C251.153 110.471 251.619 110.009 252.207 109.692C252.795 109.365 253.453 109.202 254.181 109.202C254.909 109.202 255.567 109.365 256.155 109.692C256.743 110.009 257.205 110.467 257.541 111.064C257.887 111.661 258.059 112.357 258.059 113.15C258.059 113.943 257.882 114.643 257.527 115.25C257.182 115.847 256.711 116.309 256.113 116.636C255.516 116.963 254.853 117.126 254.125 117.126ZM254.125 116.006C254.583 116.006 255.012 115.899 255.413 115.684C255.815 115.469 256.137 115.147 256.379 114.718C256.631 114.289 256.757 113.766 256.757 113.15C256.757 112.534 256.636 112.011 256.393 111.582C256.151 111.153 255.833 110.835 255.441 110.63C255.049 110.415 254.625 110.308 254.167 110.308C253.701 110.308 253.271 110.415 252.879 110.63C252.497 110.835 252.189 111.153 251.955 111.582C251.722 112.011 251.605 112.534 251.605 113.15C251.605 113.775 251.717 114.303 251.941 114.732C252.175 115.161 252.483 115.483 252.865 115.698C253.248 115.903 253.668 116.006 254.125 116.006ZM261.758 110.574C261.982 110.135 262.3 109.795 262.71 109.552C263.13 109.309 263.639 109.188 264.236 109.188V110.504H263.9C262.472 110.504 261.758 111.279 261.758 112.828V117H260.484V109.328H261.758V110.574ZM273.457 112.87C273.457 113.113 273.443 113.369 273.415 113.64H267.283C267.33 114.396 267.586 114.989 268.053 115.418C268.529 115.838 269.103 116.048 269.775 116.048C270.326 116.048 270.783 115.922 271.147 115.67C271.52 115.409 271.782 115.063 271.931 114.634H273.303C273.098 115.371 272.687 115.973 272.071 116.44C271.455 116.897 270.69 117.126 269.775 117.126C269.047 117.126 268.394 116.963 267.815 116.636C267.246 116.309 266.798 115.847 266.471 115.25C266.144 114.643 265.981 113.943 265.981 113.15C265.981 112.357 266.14 111.661 266.457 111.064C266.774 110.467 267.218 110.009 267.787 109.692C268.366 109.365 269.028 109.202 269.775 109.202C270.503 109.202 271.147 109.361 271.707 109.678C272.267 109.995 272.696 110.434 272.995 110.994C273.303 111.545 273.457 112.17 273.457 112.87ZM272.141 112.604C272.141 112.119 272.034 111.703 271.819 111.358C271.604 111.003 271.31 110.737 270.937 110.56C270.573 110.373 270.167 110.28 269.719 110.28C269.075 110.28 268.524 110.485 268.067 110.896C267.619 111.307 267.362 111.876 267.297 112.604H272.141ZM279.627 109.188C280.56 109.188 281.316 109.473 281.895 110.042C282.473 110.602 282.763 111.414 282.763 112.478V117H281.503V112.66C281.503 111.895 281.311 111.311 280.929 110.91C280.546 110.499 280.023 110.294 279.361 110.294C278.689 110.294 278.152 110.504 277.751 110.924C277.359 111.344 277.163 111.955 277.163 112.758V117H275.889V109.328H277.163V110.42C277.415 110.028 277.755 109.725 278.185 109.51C278.623 109.295 279.104 109.188 279.627 109.188ZM245.26 139.242V149H243.986V139.242H245.26ZM249.456 142.742C249.708 142.303 250.081 141.939 250.576 141.65C251.08 141.351 251.663 141.202 252.326 141.202C253.007 141.202 253.623 141.365 254.174 141.692C254.734 142.019 255.172 142.481 255.49 143.078C255.807 143.666 255.966 144.352 255.966 145.136C255.966 145.911 255.807 146.601 255.49 147.208C255.172 147.815 254.734 148.286 254.174 148.622C253.623 148.958 253.007 149.126 252.326 149.126C251.672 149.126 251.094 148.981 250.59 148.692C250.095 148.393 249.717 148.025 249.456 147.586V152.64H248.182V141.328H249.456V142.742ZM254.664 145.136C254.664 144.557 254.547 144.053 254.314 143.624C254.08 143.195 253.763 142.868 253.362 142.644C252.97 142.42 252.536 142.308 252.06 142.308C251.593 142.308 251.159 142.425 250.758 142.658C250.366 142.882 250.048 143.213 249.806 143.652C249.572 144.081 249.456 144.581 249.456 145.15C249.456 145.729 249.572 146.237 249.806 146.676C250.048 147.105 250.366 147.437 250.758 147.67C251.159 147.894 251.593 148.006 252.06 148.006C252.536 148.006 252.97 147.894 253.362 147.67C253.763 147.437 254.08 147.105 254.314 146.676C254.547 146.237 254.664 145.724 254.664 145.136ZM261.108 149.126C260.52 149.126 259.993 149.028 259.526 148.832C259.06 148.627 258.691 148.347 258.42 147.992C258.15 147.628 258 147.213 257.972 146.746H259.288C259.326 147.129 259.503 147.441 259.82 147.684C260.147 147.927 260.572 148.048 261.094 148.048C261.58 148.048 261.962 147.941 262.242 147.726C262.522 147.511 262.662 147.241 262.662 146.914C262.662 146.578 262.513 146.331 262.214 146.172C261.916 146.004 261.454 145.841 260.828 145.682C260.259 145.533 259.792 145.383 259.428 145.234C259.074 145.075 258.766 144.847 258.504 144.548C258.252 144.24 258.126 143.839 258.126 143.344C258.126 142.952 258.243 142.593 258.476 142.266C258.71 141.939 259.041 141.683 259.47 141.496C259.9 141.3 260.39 141.202 260.94 141.202C261.79 141.202 262.476 141.417 262.998 141.846C263.521 142.275 263.801 142.863 263.838 143.61H262.564C262.536 143.209 262.373 142.887 262.074 142.644C261.785 142.401 261.393 142.28 260.898 142.28C260.441 142.28 260.077 142.378 259.806 142.574C259.536 142.77 259.4 143.027 259.4 143.344C259.4 143.596 259.48 143.806 259.638 143.974C259.806 144.133 260.012 144.263 260.254 144.366C260.506 144.459 260.852 144.567 261.29 144.688C261.841 144.837 262.289 144.987 262.634 145.136C262.98 145.276 263.274 145.491 263.516 145.78C263.768 146.069 263.899 146.447 263.908 146.914C263.908 147.334 263.792 147.712 263.558 148.048C263.325 148.384 262.994 148.65 262.564 148.846C262.144 149.033 261.659 149.126 261.108 149.126ZM265.981 145.136C265.981 144.352 266.14 143.666 266.457 143.078C266.774 142.481 267.208 142.019 267.759 141.692C268.319 141.365 268.94 141.202 269.621 141.202C270.293 141.202 270.876 141.347 271.371 141.636C271.866 141.925 272.234 142.289 272.477 142.728V141.328H273.765V149H272.477V147.572C272.225 148.02 271.847 148.393 271.343 148.692C270.848 148.981 270.27 149.126 269.607 149.126C268.926 149.126 268.31 148.958 267.759 148.622C267.208 148.286 266.774 147.815 266.457 147.208C266.14 146.601 265.981 145.911 265.981 145.136ZM272.477 145.15C272.477 144.571 272.36 144.067 272.127 143.638C271.894 143.209 271.576 142.882 271.175 142.658C270.783 142.425 270.349 142.308 269.873 142.308C269.397 142.308 268.963 142.42 268.571 142.644C268.179 142.868 267.866 143.195 267.633 143.624C267.4 144.053 267.283 144.557 267.283 145.136C267.283 145.724 267.4 146.237 267.633 146.676C267.866 147.105 268.179 147.437 268.571 147.67C268.963 147.894 269.397 148.006 269.873 148.006C270.349 148.006 270.783 147.894 271.175 147.67C271.576 147.437 271.894 147.105 272.127 146.676C272.36 146.237 272.477 145.729 272.477 145.15ZM285.894 141.188C286.491 141.188 287.023 141.314 287.49 141.566C287.957 141.809 288.325 142.177 288.596 142.672C288.867 143.167 289.002 143.769 289.002 144.478V149H287.742V144.66C287.742 143.895 287.551 143.311 287.168 142.91C286.795 142.499 286.286 142.294 285.642 142.294C284.979 142.294 284.452 142.509 284.06 142.938C283.668 143.358 283.472 143.969 283.472 144.772V149H282.212V144.66C282.212 143.895 282.021 143.311 281.638 142.91C281.265 142.499 280.756 142.294 280.112 142.294C279.449 142.294 278.922 142.509 278.53 142.938C278.138 143.358 277.942 143.969 277.942 144.772V149H276.668V141.328H277.942V142.434C278.194 142.033 278.53 141.725 278.95 141.51C279.379 141.295 279.851 141.188 280.364 141.188C281.008 141.188 281.577 141.333 282.072 141.622C282.567 141.911 282.935 142.336 283.178 142.896C283.393 142.355 283.747 141.935 284.242 141.636C284.737 141.337 285.287 141.188 285.894 141.188ZM247.024 171.242C248.088 171.242 249.008 171.443 249.782 171.844C250.566 172.236 251.164 172.801 251.574 173.538C251.994 174.275 252.204 175.143 252.204 176.142C252.204 177.141 251.994 178.009 251.574 178.746C251.164 179.474 250.566 180.034 249.782 180.426C249.008 180.809 248.088 181 247.024 181H243.986V171.242H247.024ZM247.024 179.95C248.284 179.95 249.246 179.619 249.908 178.956C250.571 178.284 250.902 177.346 250.902 176.142C250.902 174.929 250.566 173.981 249.894 173.3C249.232 172.619 248.275 172.278 247.024 172.278H245.26V179.95H247.024ZM257.981 181.126C257.262 181.126 256.609 180.963 256.021 180.636C255.442 180.309 254.985 179.847 254.649 179.25C254.322 178.643 254.159 177.943 254.159 177.15C254.159 176.366 254.327 175.675 254.663 175.078C255.008 174.471 255.475 174.009 256.063 173.692C256.651 173.365 257.309 173.202 258.037 173.202C258.765 173.202 259.423 173.365 260.011 173.692C260.599 174.009 261.061 174.467 261.397 175.064C261.742 175.661 261.915 176.357 261.915 177.15C261.915 177.943 261.737 178.643 261.383 179.25C261.037 179.847 260.566 180.309 259.969 180.636C259.371 180.963 258.709 181.126 257.981 181.126ZM257.981 180.006C258.438 180.006 258.867 179.899 259.269 179.684C259.67 179.469 259.992 179.147 260.235 178.718C260.487 178.289 260.613 177.766 260.613 177.15C260.613 176.534 260.491 176.011 260.249 175.582C260.006 175.153 259.689 174.835 259.297 174.63C258.905 174.415 258.48 174.308 258.023 174.308C257.556 174.308 257.127 174.415 256.735 174.63C256.352 174.835 256.044 175.153 255.811 175.582C255.577 176.011 255.461 176.534 255.461 177.15C255.461 177.775 255.573 178.303 255.797 178.732C256.03 179.161 256.338 179.483 256.721 179.698C257.103 179.903 257.523 180.006 257.981 180.006ZM265.614 170.64V181H264.34V170.64H265.614ZM271.881 181.126C271.162 181.126 270.509 180.963 269.921 180.636C269.342 180.309 268.885 179.847 268.549 179.25C268.222 178.643 268.059 177.943 268.059 177.15C268.059 176.366 268.227 175.675 268.563 175.078C268.908 174.471 269.375 174.009 269.963 173.692C270.551 173.365 271.209 173.202 271.937 173.202C272.665 173.202 273.323 173.365 273.911 173.692C274.499 174.009 274.961 174.467 275.297 175.064C275.642 175.661 275.815 176.357 275.815 177.15C275.815 177.943 275.638 178.643 275.283 179.25C274.938 179.847 274.466 180.309 273.869 180.636C273.272 180.963 272.609 181.126 271.881 181.126ZM271.881 180.006C272.338 180.006 272.768 179.899 273.169 179.684C273.57 179.469 273.892 179.147 274.135 178.718C274.387 178.289 274.513 177.766 274.513 177.15C274.513 176.534 274.392 176.011 274.149 175.582C273.906 175.153 273.589 174.835 273.197 174.63C272.805 174.415 272.38 174.308 271.923 174.308C271.456 174.308 271.027 174.415 270.635 174.63C270.252 174.835 269.944 175.153 269.711 175.582C269.478 176.011 269.361 176.534 269.361 177.15C269.361 177.775 269.473 178.303 269.697 178.732C269.93 179.161 270.238 179.483 270.621 179.698C271.004 179.903 271.424 180.006 271.881 180.006ZM279.514 174.574C279.738 174.135 280.055 173.795 280.466 173.552C280.886 173.309 281.395 173.188 281.992 173.188V174.504H281.656C280.228 174.504 279.514 175.279 279.514 176.828V181H278.24V173.328H279.514V174.574ZM247.08 213.098C246.436 213.098 245.858 212.986 245.344 212.762C244.84 212.529 244.444 212.211 244.154 211.81C243.865 211.399 243.716 210.928 243.706 210.396H245.064C245.111 210.853 245.298 211.241 245.624 211.558C245.96 211.866 246.446 212.02 247.08 212.02C247.687 212.02 248.163 211.871 248.508 211.572C248.863 211.264 249.04 210.872 249.04 210.396C249.04 210.023 248.938 209.719 248.732 209.486C248.527 209.253 248.27 209.075 247.962 208.954C247.654 208.833 247.239 208.702 246.716 208.562C246.072 208.394 245.554 208.226 245.162 208.058C244.78 207.89 244.448 207.629 244.168 207.274C243.898 206.91 243.762 206.425 243.762 205.818C243.762 205.286 243.898 204.815 244.168 204.404C244.439 203.993 244.817 203.676 245.302 203.452C245.797 203.228 246.362 203.116 246.996 203.116C247.911 203.116 248.658 203.345 249.236 203.802C249.824 204.259 250.156 204.866 250.23 205.622H248.83C248.784 205.249 248.588 204.922 248.242 204.642C247.897 204.353 247.44 204.208 246.87 204.208C246.338 204.208 245.904 204.348 245.568 204.628C245.232 204.899 245.064 205.281 245.064 205.776C245.064 206.131 245.162 206.42 245.358 206.644C245.564 206.868 245.811 207.041 246.1 207.162C246.399 207.274 246.814 207.405 247.346 207.554C247.99 207.731 248.508 207.909 248.9 208.086C249.292 208.254 249.628 208.52 249.908 208.884C250.188 209.239 250.328 209.724 250.328 210.34C250.328 210.816 250.202 211.264 249.95 211.684C249.698 212.104 249.325 212.445 248.83 212.706C248.336 212.967 247.752 213.098 247.08 213.098ZM253.611 204.082C253.368 204.082 253.163 203.998 252.995 203.83C252.827 203.662 252.743 203.457 252.743 203.214C252.743 202.971 252.827 202.766 252.995 202.598C253.163 202.43 253.368 202.346 253.611 202.346C253.844 202.346 254.04 202.43 254.199 202.598C254.367 202.766 254.451 202.971 254.451 203.214C254.451 203.457 254.367 203.662 254.199 203.83C254.04 203.998 253.844 204.082 253.611 204.082ZM254.227 205.328V213H252.953V205.328H254.227ZM258.422 206.574C258.646 206.135 258.964 205.795 259.374 205.552C259.794 205.309 260.303 205.188 260.9 205.188V206.504H260.564C259.136 206.504 258.422 207.279 258.422 208.828V213H257.148V205.328H258.422V206.574ZM264.675 206.378V210.9C264.675 211.273 264.754 211.539 264.913 211.698C265.072 211.847 265.347 211.922 265.739 211.922H266.677V213H265.529C264.82 213 264.288 212.837 263.933 212.51C263.578 212.183 263.401 211.647 263.401 210.9V206.378H262.407V205.328H263.401V203.396H264.675V205.328H266.677V206.378H264.675ZM249.754 242.83H245.498L244.714 245H243.37L246.898 235.298H248.368L251.882 245H250.538L249.754 242.83ZM249.39 241.794L247.626 236.866L245.862 241.794H249.39ZM263.396 237.188C263.993 237.188 264.525 237.314 264.992 237.566C265.458 237.809 265.827 238.177 266.098 238.672C266.368 239.167 266.504 239.769 266.504 240.478V245H265.244V240.66C265.244 239.895 265.052 239.311 264.67 238.91C264.296 238.499 263.788 238.294 263.144 238.294C262.481 238.294 261.954 238.509 261.562 238.938C261.17 239.358 260.974 239.969 260.974 240.772V245H259.714V240.66C259.714 239.895 259.522 239.311 259.14 238.91C258.766 238.499 258.258 238.294 257.614 238.294C256.951 238.294 256.424 238.509 256.032 238.938C255.64 239.358 255.444 239.969 255.444 240.772V245H254.17V237.328H255.444V238.434C255.696 238.033 256.032 237.725 256.452 237.51C256.881 237.295 257.352 237.188 257.866 237.188C258.51 237.188 259.079 237.333 259.574 237.622C260.068 237.911 260.437 238.336 260.68 238.896C260.894 238.355 261.249 237.935 261.744 237.636C262.238 237.337 262.789 237.188 263.396 237.188ZM276.344 240.87C276.344 241.113 276.33 241.369 276.302 241.64H270.17C270.216 242.396 270.473 242.989 270.94 243.418C271.416 243.838 271.99 244.048 272.662 244.048C273.212 244.048 273.67 243.922 274.034 243.67C274.407 243.409 274.668 243.063 274.818 242.634H276.19C275.984 243.371 275.574 243.973 274.958 244.44C274.342 244.897 273.576 245.126 272.662 245.126C271.934 245.126 271.28 244.963 270.702 244.636C270.132 244.309 269.684 243.847 269.358 243.25C269.031 242.643 268.868 241.943 268.868 241.15C268.868 240.357 269.026 239.661 269.344 239.064C269.661 238.467 270.104 238.009 270.674 237.692C271.252 237.365 271.915 237.202 272.662 237.202C273.39 237.202 274.034 237.361 274.594 237.678C275.154 237.995 275.583 238.434 275.882 238.994C276.19 239.545 276.344 240.17 276.344 240.87ZM275.028 240.604C275.028 240.119 274.92 239.703 274.706 239.358C274.491 239.003 274.197 238.737 273.824 238.56C273.46 238.373 273.054 238.28 272.606 238.28C271.962 238.28 271.411 238.485 270.954 238.896C270.506 239.307 270.249 239.876 270.184 240.604H275.028ZM280.329 238.378V242.9C280.329 243.273 280.409 243.539 280.567 243.698C280.726 243.847 281.001 243.922 281.393 243.922H282.331V245H281.183C280.474 245 279.942 244.837 279.587 244.51C279.233 244.183 279.055 243.647 279.055 242.9V238.378H278.061V237.328H279.055V235.396H280.329V237.328H282.331V238.378H280.329Z" fill="#84A4B5"/>
<path d="M226.714 53.056V42.808H236.962V53.056H226.714Z" fill="#EB5757"/>
<path d="M226.714 85.056V74.808H236.962V85.056H226.714Z" fill="#CC43FF"/>
<path d="M226.714 117.056V106.808H236.962V117.056H226.714Z" fill="#56CCF2"/>
<path d="M226.714 149.056V138.808H236.962V149.056H226.714Z" fill="#8217ED"/>
<path d="M226.714 181.056V170.808H236.962V181.056H226.714Z" fill="#ED2E7E"/>
<path d="M226.714 213.056V202.808H236.962V213.056H226.714Z" fill="#F4B740"/>
<path d="M226.714 245.056V234.808H236.962V245.056H226.714Z" fill="#6FCF97"/>
<path d="M94.9951 43.0037C99.1737 43.0782 103.238 43.6187 107.14 44.5754L117.076 6.84941C110.001 5.06327 102.606 4.07933 94.9951 4V43.0037Z" fill="#2F80ED"/>
<path d="M39.0037 96.9949C39.2485 83.2663 44.5234 70.7653 53.0636 61.2566L24.9834 34.1708C9.68368 50.706 0.252692 72.7505 0 96.9949L39.0037 96.9949Z" fill="#F4B740"/>
<path d="M92.9948 152.986C63.4132 152.458 39.5311 128.576 39.0037 98.9948L0 98.9948C0.532839 150.116 41.8736 191.457 92.9948 191.99V152.986Z" fill="#ED2E7E"/>
<path d="M160.263 164.661C143.488 181.337 120.454 191.724 94.9941 191.99V152.986C109.433 152.729 122.513 146.907 132.183 137.575L160.263 164.661Z" fill="#8217ED"/>
<path d="M148.986 98.9949C148.728 113.422 142.916 126.493 133.598 136.16L161.667 163.236C177.754 146.554 187.729 123.939 187.989 98.9949H148.986Z" fill="#56CCF2"/>
<path d="M144.275 75.6696C147.182 82.2054 148.851 89.4129 148.986 96.9948L187.99 96.9948C187.849 83.4739 184.853 70.6371 179.577 59.0586L144.275 75.6696Z" fill="#CC43FF"/>
<path d="M109.072 45.0873C124.182 49.3852 136.64 59.9814 143.428 73.8573L178.728 57.2477C167.071 33.0527 145.357 14.6155 119.009 7.35974L109.072 45.0873Z" fill="#EB5757"/>
<path fill-rule="evenodd" clip-rule="evenodd" d="M92.995 43.0037C77.8583 43.2736 64.2139 49.6584 54.4272 59.7928L26.3574 32.7171C43.2373 15.2308 66.8357 4.27266 92.995 4V43.0037Z" fill="#6FCF97"/>
</svg>
