<svg width="323" height="84" viewBox="0 0 323 84" fill="none" xmlns="http://www.w3.org/2000/svg">
<path fill-rule="evenodd" clip-rule="evenodd" d="M0 26.6864L7.52548 39.1778L11.5096 12.4915L19.9204 24.4152L26.1178 37.4745L34.086 40.3134L41.6115 64.1608L48.6943 57.9151L56.6624 24.4152L63.3025 28.3897H71.2707L78.7962 1.70338L86.3217 24.4152L94.2898 40.8812L100.93 48.8303L109.341 17.0338L117.309 15.8983L124.834 3.97456L131.917 0L139 5.11015L148.376 24.4152L157.752 3.97455L167.713 22.5L178.261 17.0338L189.395 28.3897L198.185 40.8812L208.732 32.5L218.694 1.70337L228.656 28.3897H239.204L247.994 24.4152L258.541 57.9151L267.917 64.1608L277.879 40.3134L288.427 37.4744L296.631 24.4152L307.764 12.4915L313.038 39.1778L323 26.6863V84L139 84H0V26.6864Z" fill="#5BE3C3" fill-opacity="0.2"/>
<rect x="158" y="4" width="81" height="36" rx="4" fill="#081F2B"/>
<path d="M165.528 10.636C166.44 10.636 167.228 10.808 167.892 11.152C168.564 11.488 169.076 11.972 169.428 12.604C169.788 13.236 169.968 13.98 169.968 14.836C169.968 15.692 169.788 16.436 169.428 17.068C169.076 17.692 168.564 18.172 167.892 18.508C167.228 18.836 166.44 19 165.528 19H162.924V10.636H165.528ZM165.528 18.1C166.608 18.1 167.432 17.816 168 17.248C168.568 16.672 168.852 15.868 168.852 14.836C168.852 13.796 168.564 12.984 167.988 12.4C167.42 11.816 166.6 11.524 165.528 11.524H164.016V18.1H165.528ZM177.408 15.46C177.408 15.668 177.396 15.888 177.372 16.12H172.116C172.156 16.768 172.376 17.276 172.776 17.644C173.184 18.004 173.676 18.184 174.252 18.184C174.724 18.184 175.116 18.076 175.428 17.86C175.748 17.636 175.972 17.34 176.1 16.972H177.276C177.1 17.604 176.748 18.12 176.22 18.52C175.692 18.912 175.036 19.108 174.252 19.108C173.628 19.108 173.068 18.968 172.572 18.688C172.084 18.408 171.7 18.012 171.42 17.5C171.14 16.98 171 16.38 171 15.7C171 15.02 171.136 14.424 171.408 13.912C171.68 13.4 172.06 13.008 172.548 12.736C173.044 12.456 173.612 12.316 174.252 12.316C174.876 12.316 175.428 12.452 175.908 12.724C176.388 12.996 176.756 13.372 177.012 13.852C177.276 14.324 177.408 14.86 177.408 15.46ZM176.28 15.232C176.28 14.816 176.188 14.46 176.004 14.164C175.82 13.86 175.568 13.632 175.248 13.48C174.936 13.32 174.588 13.24 174.204 13.24C173.652 13.24 173.18 13.416 172.788 13.768C172.404 14.12 172.184 14.608 172.128 15.232H176.28ZM178.442 15.7C178.442 15.02 178.578 14.428 178.85 13.924C179.122 13.412 179.498 13.016 179.978 12.736C180.466 12.456 181.022 12.316 181.646 12.316C182.454 12.316 183.118 12.512 183.638 12.904C184.166 13.296 184.514 13.84 184.682 14.536H183.506C183.394 14.136 183.174 13.82 182.846 13.588C182.526 13.356 182.126 13.24 181.646 13.24C181.022 13.24 180.518 13.456 180.134 13.888C179.75 14.312 179.558 14.916 179.558 15.7C179.558 16.492 179.75 17.104 180.134 17.536C180.518 17.968 181.022 18.184 181.646 18.184C182.126 18.184 182.526 18.072 182.846 17.848C183.166 17.624 183.386 17.304 183.506 16.888H184.682C184.506 17.56 184.154 18.1 183.626 18.508C183.098 18.908 182.438 19.108 181.646 19.108C181.022 19.108 180.466 18.968 179.978 18.688C179.498 18.408 179.122 18.012 178.85 17.5C178.578 16.988 178.442 16.388 178.442 15.7ZM188.87 11.32V10.324H191.126V19H190.022V11.32H188.87ZM194.586 14.488C194.138 14.312 193.794 14.056 193.554 13.72C193.314 13.384 193.194 12.976 193.194 12.496C193.194 12.064 193.302 11.676 193.518 11.332C193.734 10.98 194.054 10.704 194.478 10.504C194.91 10.296 195.43 10.192 196.038 10.192C196.646 10.192 197.162 10.296 197.586 10.504C198.018 10.704 198.342 10.98 198.558 11.332C198.782 11.676 198.894 12.064 198.894 12.496C198.894 12.96 198.77 13.368 198.522 13.72C198.274 14.064 197.934 14.32 197.502 14.488C197.998 14.64 198.39 14.908 198.678 15.292C198.974 15.668 199.122 16.124 199.122 16.66C199.122 17.18 198.994 17.636 198.738 18.028C198.482 18.412 198.118 18.712 197.646 18.928C197.182 19.136 196.646 19.24 196.038 19.24C195.43 19.24 194.894 19.136 194.43 18.928C193.974 18.712 193.618 18.412 193.362 18.028C193.106 17.636 192.978 17.18 192.978 16.66C192.978 16.124 193.122 15.664 193.41 15.28C193.698 14.896 194.09 14.632 194.586 14.488ZM197.838 12.628C197.838 12.14 197.678 11.764 197.358 11.5C197.038 11.236 196.598 11.104 196.038 11.104C195.486 11.104 195.05 11.236 194.73 11.5C194.41 11.764 194.25 12.144 194.25 12.64C194.25 13.088 194.414 13.448 194.742 13.72C195.078 13.992 195.51 14.128 196.038 14.128C196.574 14.128 197.006 13.992 197.334 13.72C197.67 13.44 197.838 13.076 197.838 12.628ZM196.038 14.968C195.446 14.968 194.962 15.108 194.586 15.388C194.21 15.66 194.022 16.072 194.022 16.624C194.022 17.136 194.202 17.548 194.562 17.86C194.93 18.172 195.422 18.328 196.038 18.328C196.654 18.328 197.142 18.172 197.502 17.86C197.862 17.548 198.042 17.136 198.042 16.624C198.042 16.088 197.858 15.68 197.49 15.4C197.122 15.112 196.638 14.968 196.038 14.968ZM201.88 17.488L200.536 20.716H199.804L200.68 17.488H201.88ZM206.018 18.124C207.034 17.308 207.83 16.64 208.406 16.12C208.982 15.592 209.466 15.044 209.858 14.476C210.258 13.9 210.458 13.336 210.458 12.784C210.458 12.264 210.33 11.856 210.074 11.56C209.826 11.256 209.422 11.104 208.862 11.104C208.318 11.104 207.894 11.276 207.59 11.62C207.294 11.956 207.134 12.408 207.11 12.976H206.054C206.086 12.08 206.358 11.388 206.87 10.9C207.382 10.412 208.042 10.168 208.85 10.168C209.674 10.168 210.326 10.396 210.806 10.852C211.294 11.308 211.538 11.936 211.538 12.736C211.538 13.4 211.338 14.048 210.938 14.68C210.546 15.304 210.098 15.856 209.594 16.336C209.09 16.808 208.446 17.36 207.662 17.992H211.79V18.904H206.018V18.124ZM213.053 14.572C213.053 13.196 213.277 12.124 213.725 11.356C214.173 10.58 214.957 10.192 216.077 10.192C217.189 10.192 217.969 10.58 218.417 11.356C218.865 12.124 219.089 13.196 219.089 14.572C219.089 15.972 218.865 17.06 218.417 17.836C217.969 18.612 217.189 19 216.077 19C214.957 19 214.173 18.612 213.725 17.836C213.277 17.06 213.053 15.972 213.053 14.572ZM218.009 14.572C218.009 13.876 217.961 13.288 217.865 12.808C217.777 12.32 217.589 11.928 217.301 11.632C217.021 11.336 216.613 11.188 216.077 11.188C215.533 11.188 215.117 11.336 214.829 11.632C214.549 11.928 214.361 12.32 214.265 12.808C214.177 13.288 214.133 13.876 214.133 14.572C214.133 15.292 214.177 15.896 214.265 16.384C214.361 16.872 214.549 17.264 214.829 17.56C215.117 17.856 215.533 18.004 216.077 18.004C216.613 18.004 217.021 17.856 217.301 17.56C217.589 17.264 217.777 16.872 217.865 16.384C217.961 15.896 218.009 15.292 218.009 14.572ZM220.456 18.124C221.472 17.308 222.268 16.64 222.844 16.12C223.42 15.592 223.904 15.044 224.296 14.476C224.696 13.9 224.896 13.336 224.896 12.784C224.896 12.264 224.768 11.856 224.512 11.56C224.264 11.256 223.86 11.104 223.3 11.104C222.756 11.104 222.332 11.276 222.028 11.62C221.732 11.956 221.572 12.408 221.548 12.976H220.492C220.524 12.08 220.796 11.388 221.308 10.9C221.82 10.412 222.48 10.168 223.288 10.168C224.112 10.168 224.764 10.396 225.244 10.852C225.732 11.308 225.976 11.936 225.976 12.736C225.976 13.4 225.776 14.048 225.376 14.68C224.984 15.304 224.536 15.856 224.032 16.336C223.528 16.808 222.884 17.36 222.1 17.992H226.228V18.904H220.456V18.124ZM227.49 14.572C227.49 13.196 227.714 12.124 228.162 11.356C228.61 10.58 229.394 10.192 230.514 10.192C231.626 10.192 232.406 10.58 232.854 11.356C233.302 12.124 233.526 13.196 233.526 14.572C233.526 15.972 233.302 17.06 232.854 17.836C232.406 18.612 231.626 19 230.514 19C229.394 19 228.61 18.612 228.162 17.836C227.714 17.06 227.49 15.972 227.49 14.572ZM232.446 14.572C232.446 13.876 232.398 13.288 232.302 12.808C232.214 12.32 232.026 11.928 231.738 11.632C231.458 11.336 231.05 11.188 230.514 11.188C229.97 11.188 229.554 11.336 229.266 11.632C228.986 11.928 228.798 12.32 228.702 12.808C228.614 13.288 228.57 13.876 228.57 14.572C228.57 15.292 228.614 15.896 228.702 16.384C228.798 16.872 228.986 17.264 229.266 17.56C229.554 17.856 229.97 18.004 230.514 18.004C231.05 18.004 231.458 17.856 231.738 17.56C232.026 17.264 232.214 16.872 232.302 16.384C232.398 15.896 232.446 15.292 232.446 14.572Z" fill="#84A4B5"/>
<path d="M168.324 30.708C168.324 31.092 168.228 31.46 168.036 31.812C167.844 32.156 167.56 32.444 167.184 32.676C166.816 32.908 166.372 33.04 165.852 33.072V34.044H165.204V33.072C164.476 33.008 163.884 32.776 163.428 32.376C162.972 31.968 162.74 31.452 162.732 30.828H163.896C163.928 31.164 164.052 31.456 164.268 31.704C164.492 31.952 164.804 32.108 165.204 32.172V29.172C164.668 29.036 164.236 28.896 163.908 28.752C163.58 28.608 163.3 28.384 163.068 28.08C162.836 27.776 162.72 27.368 162.72 26.856C162.72 26.208 162.944 25.672 163.392 25.248C163.848 24.824 164.452 24.588 165.204 24.54V23.544H165.852V24.54C166.532 24.596 167.08 24.816 167.496 25.2C167.912 25.576 168.152 26.068 168.216 26.676H167.052C167.012 26.396 166.888 26.144 166.68 25.92C166.472 25.688 166.196 25.536 165.852 25.464V28.392C166.38 28.528 166.808 28.668 167.136 28.812C167.472 28.948 167.752 29.168 167.976 29.472C168.208 29.776 168.324 30.188 168.324 30.708ZM163.836 26.796C163.836 27.188 163.952 27.488 164.184 27.696C164.416 27.904 164.756 28.076 165.204 28.212V25.44C164.788 25.48 164.456 25.616 164.208 25.848C163.96 26.072 163.836 26.388 163.836 26.796ZM165.852 32.184C166.284 32.136 166.62 31.98 166.86 31.716C167.108 31.452 167.232 31.136 167.232 30.768C167.232 30.376 167.112 30.076 166.872 29.868C166.632 29.652 166.292 29.48 165.852 29.352V32.184ZM169.945 31.068V30.24L174.157 24.408H175.465V30.12H176.665V31.068H175.465V33H174.385V31.068H169.945ZM174.433 25.548L171.205 30.12H174.433V25.548ZM179.064 31.488L177.72 34.716H176.988L177.864 31.488H179.064ZM181.719 28.488C181.271 28.312 180.927 28.056 180.687 27.72C180.447 27.384 180.327 26.976 180.327 26.496C180.327 26.064 180.435 25.676 180.651 25.332C180.867 24.98 181.187 24.704 181.611 24.504C182.043 24.296 182.563 24.192 183.171 24.192C183.779 24.192 184.295 24.296 184.719 24.504C185.151 24.704 185.475 24.98 185.691 25.332C185.915 25.676 186.027 26.064 186.027 26.496C186.027 26.96 185.903 27.368 185.655 27.72C185.407 28.064 185.067 28.32 184.635 28.488C185.131 28.64 185.523 28.908 185.811 29.292C186.107 29.668 186.255 30.124 186.255 30.66C186.255 31.18 186.127 31.636 185.871 32.028C185.615 32.412 185.251 32.712 184.779 32.928C184.315 33.136 183.779 33.24 183.171 33.24C182.563 33.24 182.027 33.136 181.563 32.928C181.107 32.712 180.751 32.412 180.495 32.028C180.239 31.636 180.111 31.18 180.111 30.66C180.111 30.124 180.255 29.664 180.543 29.28C180.831 28.896 181.223 28.632 181.719 28.488ZM184.971 26.628C184.971 26.14 184.811 25.764 184.491 25.5C184.171 25.236 183.731 25.104 183.171 25.104C182.619 25.104 182.183 25.236 181.863 25.5C181.543 25.764 181.383 26.144 181.383 26.64C181.383 27.088 181.547 27.448 181.875 27.72C182.211 27.992 182.643 28.128 183.171 28.128C183.707 28.128 184.139 27.992 184.467 27.72C184.803 27.44 184.971 27.076 184.971 26.628ZM183.171 28.968C182.579 28.968 182.095 29.108 181.719 29.388C181.343 29.66 181.155 30.072 181.155 30.624C181.155 31.136 181.335 31.548 181.695 31.86C182.063 32.172 182.555 32.328 183.171 32.328C183.787 32.328 184.275 32.172 184.635 31.86C184.995 31.548 185.175 31.136 185.175 30.624C185.175 30.088 184.991 29.68 184.623 29.4C184.255 29.112 183.771 28.968 183.171 28.968ZM193.237 25.272H189.025V28.008C189.209 27.752 189.481 27.544 189.841 27.384C190.201 27.216 190.589 27.132 191.005 27.132C191.669 27.132 192.209 27.272 192.625 27.552C193.041 27.824 193.337 28.18 193.513 28.62C193.697 29.052 193.789 29.512 193.789 30C193.789 30.576 193.681 31.092 193.465 31.548C193.249 32.004 192.917 32.364 192.469 32.628C192.029 32.892 191.481 33.024 190.825 33.024C189.985 33.024 189.305 32.808 188.785 32.376C188.265 31.944 187.949 31.368 187.837 30.648H188.905C189.009 31.104 189.229 31.46 189.565 31.716C189.901 31.972 190.325 32.1 190.837 32.1C191.469 32.1 191.945 31.912 192.265 31.536C192.585 31.152 192.745 30.648 192.745 30.024C192.745 29.4 192.585 28.92 192.265 28.584C191.945 28.24 191.473 28.068 190.849 28.068C190.425 28.068 190.053 28.172 189.733 28.38C189.421 28.58 189.193 28.856 189.049 29.208H188.017V24.312H193.237V25.272ZM195.24 28.572C195.24 27.196 195.464 26.124 195.912 25.356C196.36 24.58 197.144 24.192 198.264 24.192C199.376 24.192 200.156 24.58 200.604 25.356C201.052 26.124 201.276 27.196 201.276 28.572C201.276 29.972 201.052 31.06 200.604 31.836C200.156 32.612 199.376 33 198.264 33C197.144 33 196.36 32.612 195.912 31.836C195.464 31.06 195.24 29.972 195.24 28.572ZM200.196 28.572C200.196 27.876 200.148 27.288 200.052 26.808C199.964 26.32 199.776 25.928 199.488 25.632C199.208 25.336 198.8 25.188 198.264 25.188C197.72 25.188 197.304 25.336 197.016 25.632C196.736 25.928 196.548 26.32 196.452 26.808C196.364 27.288 196.32 27.876 196.32 28.572C196.32 29.292 196.364 29.896 196.452 30.384C196.548 30.872 196.736 31.264 197.016 31.56C197.304 31.856 197.72 32.004 198.264 32.004C198.8 32.004 199.208 31.856 199.488 31.56C199.776 31.264 199.964 30.872 200.052 30.384C200.148 29.896 200.196 29.292 200.196 28.572Z" fill="#04E097"/>
<line x1="198.5" y1="41" x2="198.5" y2="84" stroke="#04E097"/>
<circle cx="198.5" cy="40.5" r="2.5" fill="#04E097"/>
</svg>
