<svg width="323" height="82" viewBox="0 0 323 82" fill="none" xmlns="http://www.w3.org/2000/svg">
<path fill-rule="evenodd" clip-rule="evenodd" d="M323 49.5L313.038 37.1778L307.764 49.5L296.631 22.4152L288.427 35.4744L277.879 38.3134L267.917 20.5L258.541 10.4915L247.994 38.8812L239.204 26.3897H228.656L218.694 0L208.732 30.5L198.185 38.8812L189.395 26.3897L178.261 15.0338L167.713 20.5L157.752 1.97455L148.376 22.4152L139 26L131.917 41L124.834 42.94L117.309 48.7599L109.341 49.3141L100.93 64.8339L94.2898 60.9539L86.3217 52.9169L78.7962 67.6012L71.2707 66.381L63.3026 71.0179L56.6624 66.381L48.6943 69.2681H41.6115L34.086 73.3258L26.1178 71.9401L19.9204 77.4829H11.5096L7.52549 74.9226L0 76.3869L1.52588e-05 82L139 82H323V49.5Z" fill="#F4B740" fill-opacity="0.35"/>
<rect x="23" y="34" width="81" height="36" rx="4" fill="#081F2B"/>
<path d="M30.528 40.636C31.44 40.636 32.228 40.808 32.892 41.152C33.564 41.488 34.076 41.972 34.428 42.604C34.788 43.236 34.968 43.98 34.968 44.836C34.968 45.692 34.788 46.436 34.428 47.068C34.076 47.692 33.564 48.172 32.892 48.508C32.228 48.836 31.44 49 30.528 49H27.924V40.636H30.528ZM30.528 48.1C31.608 48.1 32.432 47.816 33 47.248C33.568 46.672 33.852 45.868 33.852 44.836C33.852 43.796 33.564 42.984 32.988 42.4C32.42 41.816 31.6 41.524 30.528 41.524H29.016V48.1H30.528ZM42.4084 45.46C42.4084 45.668 42.3964 45.888 42.3724 46.12H37.1164C37.1564 46.768 37.3764 47.276 37.7764 47.644C38.1844 48.004 38.6764 48.184 39.2524 48.184C39.7244 48.184 40.1164 48.076 40.4284 47.86C40.7484 47.636 40.9724 47.34 41.1004 46.972H42.2764C42.1004 47.604 41.7484 48.12 41.2204 48.52C40.6924 48.912 40.0364 49.108 39.2524 49.108C38.6284 49.108 38.0684 48.968 37.5724 48.688C37.0844 48.408 36.7004 48.012 36.4204 47.5C36.1404 46.98 36.0004 46.38 36.0004 45.7C36.0004 45.02 36.1364 44.424 36.4084 43.912C36.6804 43.4 37.0604 43.008 37.5484 42.736C38.0444 42.456 38.6124 42.316 39.2524 42.316C39.8764 42.316 40.4284 42.452 40.9084 42.724C41.3884 42.996 41.7564 43.372 42.0124 43.852C42.2764 44.324 42.4084 44.86 42.4084 45.46ZM41.2804 45.232C41.2804 44.816 41.1884 44.46 41.0044 44.164C40.8204 43.86 40.5684 43.632 40.2484 43.48C39.9364 43.32 39.5884 43.24 39.2044 43.24C38.6524 43.24 38.1804 43.416 37.7884 43.768C37.4044 44.12 37.1844 44.608 37.1284 45.232H41.2804ZM43.4418 45.7C43.4418 45.02 43.5778 44.428 43.8498 43.924C44.1218 43.412 44.4978 43.016 44.9778 42.736C45.4658 42.456 46.0218 42.316 46.6458 42.316C47.4538 42.316 48.1178 42.512 48.6378 42.904C49.1658 43.296 49.5138 43.84 49.6818 44.536H48.5058C48.3938 44.136 48.1738 43.82 47.8458 43.588C47.5258 43.356 47.1258 43.24 46.6458 43.24C46.0218 43.24 45.5178 43.456 45.1338 43.888C44.7498 44.312 44.5578 44.916 44.5578 45.7C44.5578 46.492 44.7498 47.104 45.1338 47.536C45.5178 47.968 46.0218 48.184 46.6458 48.184C47.1258 48.184 47.5258 48.072 47.8458 47.848C48.1658 47.624 48.3858 47.304 48.5058 46.888H49.6818C49.5058 47.56 49.1538 48.1 48.6258 48.508C48.0978 48.908 47.4378 49.108 46.6458 49.108C46.0218 49.108 45.4658 48.968 44.9778 48.688C44.4978 48.408 44.1218 48.012 43.8498 47.5C43.5778 46.988 43.4418 46.388 43.4418 45.7ZM53.8701 41.32V40.324H56.1261V49H55.0221V41.32H53.8701ZM59.5858 44.488C59.1378 44.312 58.7938 44.056 58.5538 43.72C58.3138 43.384 58.1938 42.976 58.1938 42.496C58.1938 42.064 58.3018 41.676 58.5178 41.332C58.7338 40.98 59.0538 40.704 59.4778 40.504C59.9098 40.296 60.4298 40.192 61.0378 40.192C61.6458 40.192 62.1618 40.296 62.5858 40.504C63.0178 40.704 63.3418 40.98 63.5578 41.332C63.7818 41.676 63.8938 42.064 63.8938 42.496C63.8938 42.96 63.7698 43.368 63.5218 43.72C63.2738 44.064 62.9338 44.32 62.5018 44.488C62.9978 44.64 63.3898 44.908 63.6778 45.292C63.9738 45.668 64.1218 46.124 64.1218 46.66C64.1218 47.18 63.9938 47.636 63.7378 48.028C63.4818 48.412 63.1178 48.712 62.6458 48.928C62.1818 49.136 61.6458 49.24 61.0378 49.24C60.4298 49.24 59.8938 49.136 59.4298 48.928C58.9738 48.712 58.6178 48.412 58.3618 48.028C58.1058 47.636 57.9778 47.18 57.9778 46.66C57.9778 46.124 58.1218 45.664 58.4098 45.28C58.6978 44.896 59.0898 44.632 59.5858 44.488ZM62.8378 42.628C62.8378 42.14 62.6778 41.764 62.3578 41.5C62.0378 41.236 61.5978 41.104 61.0378 41.104C60.4858 41.104 60.0498 41.236 59.7298 41.5C59.4098 41.764 59.2498 42.144 59.2498 42.64C59.2498 43.088 59.4138 43.448 59.7418 43.72C60.0778 43.992 60.5098 44.128 61.0378 44.128C61.5738 44.128 62.0058 43.992 62.3338 43.72C62.6698 43.44 62.8378 43.076 62.8378 42.628ZM61.0378 44.968C60.4458 44.968 59.9618 45.108 59.5858 45.388C59.2098 45.66 59.0218 46.072 59.0218 46.624C59.0218 47.136 59.2018 47.548 59.5618 47.86C59.9298 48.172 60.4218 48.328 61.0378 48.328C61.6538 48.328 62.1418 48.172 62.5018 47.86C62.8618 47.548 63.0418 47.136 63.0418 46.624C63.0418 46.088 62.8578 45.68 62.4898 45.4C62.1218 45.112 61.6378 44.968 61.0378 44.968ZM66.8801 47.488L65.5361 50.716H64.8041L65.6801 47.488H66.8801ZM71.0183 48.124C72.0343 47.308 72.8303 46.64 73.4062 46.12C73.9823 45.592 74.4663 45.044 74.8583 44.476C75.2583 43.9 75.4583 43.336 75.4583 42.784C75.4583 42.264 75.3303 41.856 75.0743 41.56C74.8263 41.256 74.4223 41.104 73.8623 41.104C73.3183 41.104 72.8943 41.276 72.5903 41.62C72.2943 41.956 72.1343 42.408 72.1103 42.976H71.0543C71.0863 42.08 71.3583 41.388 71.8703 40.9C72.3823 40.412 73.0423 40.168 73.8503 40.168C74.6743 40.168 75.3263 40.396 75.8063 40.852C76.2943 41.308 76.5383 41.936 76.5383 42.736C76.5383 43.4 76.3383 44.048 75.9383 44.68C75.5463 45.304 75.0983 45.856 74.5943 46.336C74.0903 46.808 73.4463 47.36 72.6623 47.992H76.7903V48.904H71.0183V48.124ZM78.0526 44.572C78.0526 43.196 78.2766 42.124 78.7246 41.356C79.1726 40.58 79.9566 40.192 81.0766 40.192C82.1886 40.192 82.9686 40.58 83.4166 41.356C83.8646 42.124 84.0886 43.196 84.0886 44.572C84.0886 45.972 83.8646 47.06 83.4166 47.836C82.9686 48.612 82.1886 49 81.0766 49C79.9566 49 79.1726 48.612 78.7246 47.836C78.2766 47.06 78.0526 45.972 78.0526 44.572ZM83.0086 44.572C83.0086 43.876 82.9606 43.288 82.8646 42.808C82.7766 42.32 82.5886 41.928 82.3006 41.632C82.0206 41.336 81.6126 41.188 81.0766 41.188C80.5326 41.188 80.1166 41.336 79.8286 41.632C79.5486 41.928 79.3606 42.32 79.2646 42.808C79.1766 43.288 79.1326 43.876 79.1326 44.572C79.1326 45.292 79.1766 45.896 79.2646 46.384C79.3606 46.872 79.5486 47.264 79.8286 47.56C80.1166 47.856 80.5326 48.004 81.0766 48.004C81.6126 48.004 82.0206 47.856 82.3006 47.56C82.5886 47.264 82.7766 46.872 82.8646 46.384C82.9606 45.896 83.0086 45.292 83.0086 44.572ZM85.4558 48.124C86.4718 47.308 87.2678 46.64 87.8438 46.12C88.4198 45.592 88.9038 45.044 89.2958 44.476C89.6958 43.9 89.8958 43.336 89.8958 42.784C89.8958 42.264 89.7678 41.856 89.5118 41.56C89.2638 41.256 88.8598 41.104 88.2998 41.104C87.7558 41.104 87.3318 41.276 87.0278 41.62C86.7318 41.956 86.5718 42.408 86.5478 42.976H85.4918C85.5238 42.08 85.7958 41.388 86.3078 40.9C86.8198 40.412 87.4798 40.168 88.2878 40.168C89.1118 40.168 89.7638 40.396 90.2438 40.852C90.7318 41.308 90.9758 41.936 90.9758 42.736C90.9758 43.4 90.7758 44.048 90.3758 44.68C89.9838 45.304 89.5358 45.856 89.0318 46.336C88.5278 46.808 87.8838 47.36 87.0998 47.992H91.2278V48.904H85.4558V48.124ZM92.4901 44.572C92.4901 43.196 92.7141 42.124 93.1621 41.356C93.6101 40.58 94.3941 40.192 95.5141 40.192C96.6261 40.192 97.4061 40.58 97.8541 41.356C98.3021 42.124 98.5261 43.196 98.5261 44.572C98.5261 45.972 98.3021 47.06 97.8541 47.836C97.4061 48.612 96.6261 49 95.5141 49C94.3941 49 93.6101 48.612 93.1621 47.836C92.7141 47.06 92.4901 45.972 92.4901 44.572ZM97.4461 44.572C97.4461 43.876 97.3981 43.288 97.3021 42.808C97.2141 42.32 97.0261 41.928 96.7381 41.632C96.4581 41.336 96.0501 41.188 95.5141 41.188C94.9701 41.188 94.5541 41.336 94.2661 41.632C93.9861 41.928 93.7981 42.32 93.7021 42.808C93.6141 43.288 93.5701 43.876 93.5701 44.572C93.5701 45.292 93.6141 45.896 93.7021 46.384C93.7981 46.872 93.9861 47.264 94.2661 47.56C94.5541 47.856 94.9701 48.004 95.5141 48.004C96.0501 48.004 96.4581 47.856 96.7381 47.56C97.0261 47.264 97.2141 46.872 97.3021 46.384C97.3981 45.896 97.4461 45.292 97.4461 44.572Z" fill="#84A4B5"/>
<path d="M33.324 60.708C33.324 61.092 33.228 61.46 33.036 61.812C32.844 62.156 32.56 62.444 32.184 62.676C31.816 62.908 31.372 63.04 30.852 63.072V64.044H30.204V63.072C29.476 63.008 28.884 62.776 28.428 62.376C27.972 61.968 27.74 61.452 27.732 60.828H28.896C28.928 61.164 29.052 61.456 29.268 61.704C29.492 61.952 29.804 62.108 30.204 62.172V59.172C29.668 59.036 29.236 58.896 28.908 58.752C28.58 58.608 28.3 58.384 28.068 58.08C27.836 57.776 27.72 57.368 27.72 56.856C27.72 56.208 27.944 55.672 28.392 55.248C28.848 54.824 29.452 54.588 30.204 54.54V53.544H30.852V54.54C31.532 54.596 32.08 54.816 32.496 55.2C32.912 55.576 33.152 56.068 33.216 56.676H32.052C32.012 56.396 31.888 56.144 31.68 55.92C31.472 55.688 31.196 55.536 30.852 55.464V58.392C31.38 58.528 31.808 58.668 32.136 58.812C32.472 58.948 32.752 59.168 32.976 59.472C33.208 59.776 33.324 60.188 33.324 60.708ZM28.836 56.796C28.836 57.188 28.952 57.488 29.184 57.696C29.416 57.904 29.756 58.076 30.204 58.212V55.44C29.788 55.48 29.456 55.616 29.208 55.848C28.96 56.072 28.836 56.388 28.836 56.796ZM30.852 62.184C31.284 62.136 31.62 61.98 31.86 61.716C32.108 61.452 32.232 61.136 32.232 60.768C32.232 60.376 32.112 60.076 31.872 59.868C31.632 59.652 31.292 59.48 30.852 59.352V62.184ZM34.9448 61.068V60.24L39.1568 54.408H40.4648V60.12H41.6648V61.068H40.4648V63H39.3848V61.068H34.9448ZM39.4328 55.548L36.2048 60.12H39.4328V55.548ZM44.0637 61.488L42.7197 64.716H41.9877L42.8637 61.488H44.0637ZM46.7186 58.488C46.2706 58.312 45.9266 58.056 45.6866 57.72C45.4466 57.384 45.3266 56.976 45.3266 56.496C45.3266 56.064 45.4346 55.676 45.6506 55.332C45.8666 54.98 46.1866 54.704 46.6106 54.504C47.0426 54.296 47.5626 54.192 48.1706 54.192C48.7786 54.192 49.2946 54.296 49.7186 54.504C50.1506 54.704 50.4746 54.98 50.6906 55.332C50.9146 55.676 51.0266 56.064 51.0266 56.496C51.0266 56.96 50.9026 57.368 50.6546 57.72C50.4066 58.064 50.0666 58.32 49.6346 58.488C50.1306 58.64 50.5226 58.908 50.8106 59.292C51.1066 59.668 51.2546 60.124 51.2546 60.66C51.2546 61.18 51.1266 61.636 50.8706 62.028C50.6146 62.412 50.2506 62.712 49.7786 62.928C49.3146 63.136 48.7786 63.24 48.1706 63.24C47.5626 63.24 47.0266 63.136 46.5626 62.928C46.1066 62.712 45.7506 62.412 45.4946 62.028C45.2386 61.636 45.1106 61.18 45.1106 60.66C45.1106 60.124 45.2546 59.664 45.5426 59.28C45.8306 58.896 46.2226 58.632 46.7186 58.488ZM49.9706 56.628C49.9706 56.14 49.8106 55.764 49.4906 55.5C49.1706 55.236 48.7306 55.104 48.1706 55.104C47.6186 55.104 47.1826 55.236 46.8626 55.5C46.5426 55.764 46.3826 56.144 46.3826 56.64C46.3826 57.088 46.5466 57.448 46.8746 57.72C47.2106 57.992 47.6426 58.128 48.1706 58.128C48.7066 58.128 49.1386 57.992 49.4666 57.72C49.8026 57.44 49.9706 57.076 49.9706 56.628ZM48.1706 58.968C47.5786 58.968 47.0946 59.108 46.7186 59.388C46.3426 59.66 46.1546 60.072 46.1546 60.624C46.1546 61.136 46.3346 61.548 46.6946 61.86C47.0626 62.172 47.5546 62.328 48.1706 62.328C48.7866 62.328 49.2746 62.172 49.6346 61.86C49.9946 61.548 50.1746 61.136 50.1746 60.624C50.1746 60.088 49.9906 59.68 49.6226 59.4C49.2546 59.112 48.7706 58.968 48.1706 58.968ZM58.2369 55.272H54.0249V58.008C54.2089 57.752 54.4809 57.544 54.8409 57.384C55.2009 57.216 55.5889 57.132 56.0049 57.132C56.6689 57.132 57.2089 57.272 57.6249 57.552C58.0409 57.824 58.3369 58.18 58.5129 58.62C58.6969 59.052 58.7889 59.512 58.7889 60C58.7889 60.576 58.6809 61.092 58.4649 61.548C58.2489 62.004 57.9169 62.364 57.4689 62.628C57.0289 62.892 56.4809 63.024 55.8249 63.024C54.9849 63.024 54.3049 62.808 53.7849 62.376C53.2649 61.944 52.9489 61.368 52.8369 60.648H53.9049C54.0089 61.104 54.2289 61.46 54.5649 61.716C54.9009 61.972 55.3249 62.1 55.8369 62.1C56.4689 62.1 56.9449 61.912 57.2649 61.536C57.5849 61.152 57.7449 60.648 57.7449 60.024C57.7449 59.4 57.5849 58.92 57.2649 58.584C56.9449 58.24 56.4729 58.068 55.8489 58.068C55.4249 58.068 55.0529 58.172 54.7329 58.38C54.4209 58.58 54.1929 58.856 54.0489 59.208H53.0169V54.312H58.2369V55.272ZM60.2401 58.572C60.2401 57.196 60.4641 56.124 60.9121 55.356C61.3601 54.58 62.1441 54.192 63.2641 54.192C64.3761 54.192 65.1561 54.58 65.6041 55.356C66.0521 56.124 66.2761 57.196 66.2761 58.572C66.2761 59.972 66.0521 61.06 65.6041 61.836C65.1561 62.612 64.3761 63 63.2641 63C62.1441 63 61.3601 62.612 60.9121 61.836C60.4641 61.06 60.2401 59.972 60.2401 58.572ZM65.1961 58.572C65.1961 57.876 65.1481 57.288 65.0521 56.808C64.9641 56.32 64.7761 55.928 64.4881 55.632C64.2081 55.336 63.8001 55.188 63.2641 55.188C62.7201 55.188 62.3041 55.336 62.0161 55.632C61.7361 55.928 61.5481 56.32 61.4521 56.808C61.3641 57.288 61.3201 57.876 61.3201 58.572C61.3201 59.292 61.3641 59.896 61.4521 60.384C61.5481 60.872 61.7361 61.264 62.0161 61.56C62.3041 61.856 62.7201 62.004 63.2641 62.004C63.8001 62.004 64.2081 61.856 64.4881 61.56C64.7761 61.264 64.9641 60.872 65.0521 60.384C65.1481 59.896 65.1961 59.292 65.1961 58.572Z" fill="#F4B740"/>
<line x1="63.5" y1="71" x2="63.5" y2="82" stroke="#F4B740"/>
<circle cx="63.5" cy="70.5" r="2.5" fill="#F4B740"/>
</svg>
