<svg width="142" height="24" viewBox="0 0 142 24" fill="none" xmlns="http://www.w3.org/2000/svg">
<path d="M0 12V24H24V12H17.9749V17.9749H5.9749V12H0Z" fill="url(#paint0_linear)"/>
<path d="M5.97485 0V12H12V5.9749H24V12H29.9749V0H5.97485Z" fill="url(#paint1_linear)"/>
<path d="M40.82 18.2762C40.1673 17.9749 39.615 17.5733 39.2133 17.021C38.8117 16.4687 38.6108 15.8661 38.6108 15.113H40.82C40.8703 15.6653 41.0711 16.1172 41.4728 16.4687C41.8744 16.8201 42.3765 16.9707 43.0795 16.9707C43.7824 16.9707 44.3347 16.8201 44.7364 16.4687C45.138 16.1172 45.3389 15.6653 45.3389 15.1632C45.3389 14.7615 45.2385 14.4101 44.9874 14.1088C44.7364 13.8578 44.4351 13.6569 44.0836 13.5063C43.7322 13.3557 43.2301 13.2051 42.5774 13.0544C41.774 12.8536 41.0711 12.6025 40.569 12.4017C40.0669 12.2009 39.615 11.8494 39.2636 11.3473C38.9121 10.8954 38.7113 10.2427 38.7113 9.48957C38.7113 8.78665 38.9121 8.13393 39.2636 7.58163C39.615 7.02932 40.1171 6.62765 40.7698 6.32639C41.4226 6.02514 42.1757 5.87451 43.0293 5.87451C44.2343 5.87451 45.2385 6.17577 46.0418 6.77828C46.7949 7.38079 47.2468 8.23434 47.3473 9.28874H45.0878C45.0376 8.83686 44.8368 8.43518 44.4351 8.13393C44.0334 7.83267 43.5313 7.63183 42.8786 7.63183C42.2761 7.63183 41.8242 7.78246 41.4226 8.08372C41.0711 8.38497 40.8703 8.83686 40.8703 9.38916C40.8703 9.79083 40.9707 10.0921 41.2217 10.3431C41.4728 10.5942 41.774 10.795 42.1255 10.9456C42.477 11.0963 42.979 11.2469 43.6318 11.3975C44.4853 11.6486 45.138 11.8494 45.6401 12.1005C46.1422 12.3515 46.5941 12.703 46.9958 13.1548C47.3472 13.6067 47.5481 14.2594 47.5481 15.0628C47.5481 15.7155 47.3975 16.318 47.046 16.8703C46.6945 17.4226 46.1924 17.8745 45.5397 18.226C44.887 18.5774 44.0836 18.7281 43.2301 18.7281C42.2761 18.7281 41.523 18.5774 40.82 18.2762Z" fill="white"/>
<path d="M51.5645 10.3432V15.8662C51.5645 16.2177 51.6649 16.519 51.8155 16.6696C51.9661 16.8202 52.2674 16.9206 52.7193 16.9206H53.9745V18.6277H52.3678C51.464 18.6277 50.7109 18.4269 50.259 17.975C49.7569 17.5231 49.5059 16.8202 49.5059 15.8662V10.3432H48.3511V8.68632H49.5059V6.22607H51.5645V8.68632H53.9745V10.3432H51.5645V10.3432Z" fill="white"/>
<path d="M55.1294 10.9456C55.531 10.1925 56.1335 9.58995 56.8365 9.13807C57.5394 8.68619 58.3428 8.48535 59.1963 8.48535C59.9997 8.48535 60.6524 8.63598 61.2549 8.93723C61.8574 9.23849 62.3093 9.64016 62.6607 10.092V8.63598H64.7193V18.5774H62.6607V17.0711C62.3093 17.523 61.8574 17.9247 61.2549 18.2259C60.6524 18.5272 59.9494 18.6778 59.1963 18.6778C58.3428 18.6778 57.5394 18.477 56.8365 18.0251C56.1335 17.5732 55.5812 16.9707 55.1294 16.1674C54.7277 15.364 54.5269 14.4602 54.5269 13.5063C54.5269 12.5523 54.6775 11.6987 55.1294 10.9456ZM62.2089 11.8494C61.9076 11.3473 61.5561 10.9456 61.1043 10.6946C60.6524 10.4435 60.1503 10.2929 59.598 10.2929C59.0457 10.2929 58.5938 10.4435 58.0917 10.6946C57.6398 10.9456 57.2381 11.3473 56.9871 11.8494C56.6858 12.3515 56.5854 12.954 56.5854 13.6067C56.5854 14.3096 56.7361 14.9121 56.9871 15.4142C57.2884 15.9163 57.6398 16.318 58.0917 16.6192C58.5436 16.8703 59.0457 17.0209 59.5478 17.0209C60.1001 17.0209 60.552 16.8703 61.054 16.6192C61.5059 16.3682 61.8574 15.9665 62.1586 15.4644C62.4599 14.9623 62.5603 14.3598 62.5603 13.6569C62.5603 12.954 62.5101 12.3515 62.2089 11.8494Z" fill="white"/>
<path d="M66.6273 10.8956C67.0289 10.1424 67.6314 9.53991 68.3344 9.08802C69.0875 8.68635 69.8909 8.4353 70.8448 8.4353C72.0498 8.4353 73.054 8.73656 73.8574 9.28886C74.6607 9.84116 75.1628 10.6947 75.4641 11.7491H73.2549C73.054 11.247 72.803 10.8453 72.4013 10.5943C71.9996 10.293 71.4975 10.1926 70.895 10.1926C70.0415 10.1926 69.3888 10.4939 68.8867 11.0964C68.3846 11.6989 68.1335 12.5525 68.1335 13.6069C68.1335 14.6612 68.3846 15.5148 68.8867 16.1173C69.3888 16.7198 70.0415 17.0211 70.895 17.0211C72.1001 17.0211 72.8532 16.519 73.2549 15.4646H75.4641C75.1628 16.4688 74.6105 17.2721 73.8574 17.8746C73.1042 18.4771 72.0498 18.7784 70.895 18.7784C69.9411 18.7784 69.0875 18.5776 68.3846 18.1257C67.6314 17.6738 67.0791 17.0713 66.6775 16.3182C66.2758 15.565 66.075 14.6612 66.075 13.6069C66.0248 12.6027 66.2256 11.6989 66.6273 10.8956Z" fill="white"/>
<path d="M80.7868 13.6571L85.3559 18.6278H82.5944L78.9291 14.36V18.6278H76.8203V5.22192H78.8789V13.0044L82.494 8.63615H85.3559L80.7868 13.6571Z" fill="white"/>
<path d="M95.1968 14.4101H87.565C87.6152 15.2135 87.9165 15.8662 88.4688 16.3181C89.0211 16.8202 89.6738 17.021 90.4269 17.021C91.5315 17.021 92.3349 16.5691 92.7868 15.6151H94.996C94.6947 16.5189 94.1424 17.272 93.3391 17.8746C92.5357 18.4771 91.5817 18.7281 90.3767 18.7281C89.4227 18.7281 88.5692 18.5273 87.816 18.0754C87.0629 17.6235 86.4604 17.021 86.0587 16.2679C85.6068 15.5147 85.406 14.611 85.406 13.5566C85.406 12.5524 85.6068 11.6486 86.0085 10.8453C86.4102 10.0921 87.0127 9.48961 87.7658 9.03773C88.519 8.63606 89.3725 8.38501 90.3767 8.38501C91.3307 8.38501 92.1341 8.58585 92.8872 8.98752C93.6403 9.38919 94.1926 9.9917 94.5943 10.6946C94.996 11.3976 95.1968 12.3013 95.1968 13.2553C95.247 13.7574 95.1968 14.1089 95.1968 14.4101ZM93.088 12.7532C93.088 12.0001 92.7868 11.3976 92.2847 10.9457C91.7324 10.4938 91.0797 10.2428 90.3265 10.2428C89.6236 10.2428 89.0211 10.4938 88.519 10.9457C88.0169 11.3976 87.7156 12.0001 87.6152 12.8034H93.088V12.7532Z" fill="white"/>
<path d="M96.5019 10.9457C96.9036 10.1926 97.5061 9.59004 98.209 9.13816C98.912 8.68628 99.7153 8.48544 100.619 8.48544C101.272 8.48544 101.925 8.63607 102.527 8.88711C103.18 9.18837 103.682 9.53983 104.033 9.99171V5.17163H106.092V18.5273H104.033V17.021C103.682 17.5231 103.23 17.9248 102.627 18.226C102.025 18.5273 101.322 18.6779 100.569 18.6779C99.7153 18.6779 98.912 18.4771 98.209 18.0252C97.5061 17.5733 96.9036 16.9708 96.5019 16.1674C96.1002 15.3641 95.8994 14.4603 95.8994 13.5064C95.8994 12.5524 96.05 11.6988 96.5019 10.9457ZM103.581 11.8495C103.28 11.3474 102.929 10.9457 102.477 10.6946C102.025 10.4436 101.523 10.293 100.971 10.293C100.418 10.293 99.9664 10.4436 99.4643 10.6946C99.0124 10.9457 98.6107 11.3474 98.3597 11.8495C98.0584 12.3515 97.958 12.9541 97.958 13.6068C97.958 14.3097 98.1086 14.9122 98.3597 15.4143C98.6609 15.9164 99.0124 16.3181 99.4643 16.6193C99.9161 16.8704 100.418 17.021 100.92 17.021C101.473 17.021 101.925 16.8704 102.427 16.6193C102.878 16.3683 103.23 15.9666 103.531 15.4645C103.832 14.9624 103.933 14.3599 103.933 13.657C103.933 12.9541 103.883 12.3515 103.581 11.8495Z" fill="white"/>
<path d="M109.606 18.3266C109.004 18.0253 108.502 17.6739 108.15 17.1718C107.799 16.6697 107.598 16.1174 107.548 15.5149H109.657C109.707 15.9166 109.908 16.268 110.259 16.5693C110.611 16.8705 111.062 16.9709 111.665 16.9709C112.268 16.9709 112.669 16.8705 113.021 16.6195C113.322 16.4186 113.523 16.1174 113.523 15.7659C113.523 15.4145 113.322 15.1132 112.97 14.9124C112.619 14.7115 112.067 14.5107 111.263 14.3099C110.51 14.109 109.908 13.9082 109.456 13.7073C109.004 13.5065 108.602 13.2053 108.251 12.8036C107.899 12.4019 107.749 11.8998 107.749 11.2471C107.749 10.6948 107.899 10.2429 108.201 9.79103C108.502 9.33914 108.954 8.98768 109.556 8.73663C110.159 8.48559 110.811 8.33496 111.565 8.33496C112.719 8.33496 113.623 8.63622 114.326 9.18852C115.029 9.74082 115.38 10.5442 115.431 11.5483H113.372C113.322 11.0965 113.171 10.745 112.82 10.494C112.519 10.2429 112.067 10.0923 111.514 10.0923C110.962 10.0923 110.56 10.1927 110.259 10.3935C109.958 10.5944 109.807 10.8454 109.807 11.1969C109.807 11.4479 109.908 11.699 110.109 11.8496C110.309 12.0504 110.56 12.1509 110.811 12.2513C111.113 12.3517 111.514 12.5023 112.016 12.653C112.719 12.8538 113.322 13.0546 113.774 13.2555C114.226 13.4563 114.627 13.7576 114.979 14.109C115.33 14.5107 115.481 15.0128 115.481 15.6655C115.481 16.2178 115.33 16.7199 115.029 17.1718C114.728 17.6237 114.276 17.9751 113.724 18.2262C113.171 18.4772 112.468 18.6278 111.715 18.6278C110.912 18.7785 110.209 18.6278 109.606 18.3266Z" fill="white"/>
<path d="M116.937 10.9456C117.339 10.1925 117.941 9.58995 118.644 9.13807C119.347 8.68619 120.151 8.48535 121.004 8.48535C121.808 8.48535 122.46 8.63598 123.063 8.93723C123.665 9.23849 124.117 9.64016 124.469 10.092V8.63598H126.527V18.5774H124.469V17.0711C124.117 17.523 123.665 17.9247 123.063 18.2259C122.46 18.5272 121.757 18.6778 121.004 18.6778C120.151 18.6778 119.347 18.477 118.644 18.0251C117.941 17.5732 117.389 16.9707 116.937 16.1674C116.536 15.364 116.335 14.4602 116.335 13.5063C116.335 12.5523 116.536 11.6987 116.937 10.9456ZM124.067 11.8494C123.766 11.3473 123.414 10.9456 122.962 10.6946C122.51 10.4435 122.008 10.2929 121.456 10.2929C120.904 10.2929 120.452 10.4435 119.95 10.6946C119.498 10.9456 119.096 11.3473 118.845 11.8494C118.544 12.3515 118.444 12.954 118.444 13.6067C118.444 14.3096 118.594 14.9121 118.845 15.4142C119.146 15.9163 119.498 16.318 119.95 16.6192C120.402 16.8703 120.904 17.0209 121.406 17.0209C121.958 17.0209 122.41 16.8703 122.912 16.6192C123.364 16.3682 123.715 15.9665 124.017 15.4644C124.318 14.9623 124.418 14.3598 124.418 13.6569C124.418 12.954 124.318 12.3515 124.067 11.8494Z" fill="white"/>
<path d="M130.946 10.3432V15.8662C130.946 16.2177 131.046 16.519 131.197 16.6696C131.347 16.8202 131.649 16.9206 132.101 16.9206H133.356V18.6277H131.749C130.845 18.6277 130.092 18.4269 129.64 17.975C129.138 17.5231 128.887 16.8202 128.887 15.8662V10.3432H127.732V8.68632H128.887V6.22607H130.946V8.68632H133.356V10.3432H130.946V10.3432Z" fill="white"/>
<path d="M136.066 18.3266C135.464 18.0253 134.962 17.6739 134.61 17.1718C134.259 16.6697 134.058 16.1174 134.008 15.5149H136.117C136.167 15.9166 136.368 16.268 136.719 16.5693C137.071 16.8705 137.522 16.9709 138.125 16.9709C138.727 16.9709 139.129 16.8705 139.481 16.6195C139.782 16.4186 139.983 16.1174 139.983 15.7659C139.983 15.4145 139.782 15.1132 139.43 14.9124C139.079 14.7115 138.527 14.5107 137.723 14.3099C136.97 14.109 136.368 13.9082 135.916 13.7073C135.464 13.5065 135.062 13.2053 134.711 12.8036C134.359 12.4019 134.209 11.8998 134.209 11.2471C134.209 10.6948 134.359 10.2429 134.661 9.79103C134.962 9.33914 135.414 8.98768 136.016 8.73663C136.619 8.48559 137.271 8.33496 138.025 8.33496C139.179 8.33496 140.083 8.63622 140.786 9.18852C141.489 9.74082 141.84 10.5442 141.891 11.5483H139.832C139.782 11.0965 139.631 10.745 139.28 10.494C138.979 10.2429 138.527 10.0923 137.974 10.0923C137.422 10.0923 137.02 10.1927 136.719 10.3935C136.418 10.5944 136.267 10.8454 136.267 11.1969C136.267 11.4479 136.368 11.699 136.568 11.8496C136.769 12.0504 137.02 12.1509 137.271 12.2513C137.573 12.3517 137.974 12.5023 138.476 12.653C139.179 12.8538 139.782 13.0546 140.234 13.2555C140.686 13.4563 141.087 13.7576 141.439 14.109C141.79 14.5107 141.941 15.0128 141.941 15.6655C141.941 16.2178 141.79 16.7199 141.489 17.1718C141.188 17.6237 140.736 17.9751 140.184 18.2262C139.631 18.4772 138.928 18.6278 138.175 18.6278C137.372 18.7785 136.669 18.6278 136.066 18.3266Z" fill="white"/>
<defs>
<linearGradient id="paint0_linear" x1="23.9759" y1="17.9818" x2="0" y2="17.9818" gradientUnits="userSpaceOnUse">
<stop stop-color="#06F9A1"/>
<stop offset="0.5" stop-color="#04E097"/>
<stop offset="1" stop-color="#05C680"/>
</linearGradient>
<linearGradient id="paint1_linear" x1="29.969" y1="5.99392" x2="5.99368" y2="5.99392" gradientUnits="userSpaceOnUse">
<stop stop-color="#45B6F4"/>
<stop offset="0.5" stop-color="#2DA6F6"/>
<stop offset="1" stop-color="#14A4F4"/>
</linearGradient>
</defs>
</svg>
