<svg width="14" height="13" viewBox="0 0 14 13" fill="currentColor" xmlns="http://www.w3.org/2000/svg">
<path d="M10.9999 11.3333H2.99992V12.6667H1.66659V11.3333H0.999919C0.823108 11.3333 0.653538 11.2631 0.528514 11.1381C0.40349 11.013 0.333252 10.8435 0.333252 10.6667V0.666667C0.333252 0.489856 0.40349 0.320286 0.528514 0.195262C0.653538 0.0702379 0.823108 0 0.999919 0H12.9999C13.1767 0 13.3463 0.0702379 13.4713 0.195262C13.5963 0.320286 13.6666 0.489856 13.6666 0.666667V10.6667C13.6666 10.8435 13.5963 11.013 13.4713 11.1381C13.3463 11.2631 13.1767 11.3333 12.9999 11.3333H12.3333V12.6667H10.9999V11.3333ZM1.66659 10H12.3333V1.33333H1.66659V10ZM7.66659 7.24933V9.33333H6.33325V7.24933C5.70626 7.08551 5.16032 6.69909 4.79739 6.16222C4.43445 5.62535 4.27932 4.97473 4.36096 4.33185C4.44261 3.68898 4.75545 3.09779 5.24106 2.66869C5.72668 2.23958 6.35188 2.00189 6.99992 2C7.64943 1.99936 8.27684 2.23579 8.7644 2.66492C9.25196 3.09404 9.56614 3.68636 9.64797 4.3307C9.7298 4.97503 9.57366 5.62708 9.20885 6.16446C8.84403 6.70184 8.29564 7.0876 7.66659 7.24933ZM6.99992 6C7.35354 6 7.69268 5.85952 7.94273 5.60948C8.19278 5.35943 8.33325 5.02029 8.33325 4.66667C8.33325 4.31304 8.19278 3.97391 7.94273 3.72386C7.69268 3.47381 7.35354 3.33333 6.99992 3.33333C6.6463 3.33333 6.30716 3.47381 6.05711 3.72386C5.80706 3.97391 5.66659 4.31304 5.66659 4.66667C5.66659 5.02029 5.80706 5.35943 6.05711 5.60948C6.30716 5.85952 6.6463 6 6.99992 6Z"/>
</svg>
