<svg width="14" height="15" viewBox="0 0 14 15" fill="currentColor" xmlns="http://www.w3.org/2000/svg">
<path d="M1.66659 4.0953V12.6446L5.04325 11.198L9.04325 13.198L12.3333 11.7866V3.23797L13.2019 2.86597C13.2526 2.84422 13.308 2.83541 13.3629 2.84033C13.4179 2.84525 13.4708 2.86373 13.5169 2.89413C13.5629 2.92453 13.6007 2.96589 13.6268 3.0145C13.653 3.06311 13.6666 3.11745 13.6666 3.17264V12.6666L8.99992 14.6666L4.99992 12.6666L0.797919 14.4673C0.747195 14.489 0.691865 14.4979 0.636896 14.4929C0.581927 14.488 0.529038 14.4695 0.482977 14.4391C0.436915 14.4087 0.399122 14.3674 0.37299 14.3188C0.346857 14.2702 0.333203 14.2158 0.333252 14.1606V4.66664L1.66659 4.0953ZM9.82859 7.4953L6.99992 10.3233L4.17125 7.4953C3.61191 6.93586 3.23101 6.22313 3.07673 5.44723C2.92244 4.67132 3.00169 3.86709 3.30447 3.13622C3.60724 2.40536 4.11993 1.78068 4.77771 1.34119C5.43549 0.901693 6.20882 0.667114 6.99992 0.667114C7.79102 0.667114 8.56435 0.901693 9.22213 1.34119C9.87991 1.78068 10.3926 2.40536 10.6954 3.13622C10.9981 3.86709 11.0774 4.67132 10.9231 5.44723C10.7688 6.22313 10.3879 6.93586 9.82859 7.4953V7.4953ZM6.99992 8.43797L8.88525 6.55197C9.25827 6.17906 9.51233 5.70391 9.61529 5.1866C9.71825 4.6693 9.66548 4.13308 9.46367 3.64576C9.26186 3.15845 8.92007 2.74192 8.48152 2.44887C8.04297 2.15582 7.52737 1.9994 6.99992 1.9994C6.47247 1.9994 5.95686 2.15582 5.51831 2.44887C5.07977 2.74192 4.73797 3.15845 4.53616 3.64576C4.33435 4.13308 4.28159 4.6693 4.38455 5.1866C4.48751 5.70391 4.74156 6.17906 5.11459 6.55197L6.99992 8.43797Z"/>
</svg>
