<svg width="15" height="12" viewBox="0 0 15 12" fill="currentColor" xmlns="http://www.w3.org/2000/svg">
<path d="M13.6666 2.66667H14.3333V9.33333H13.6666V11.3333C13.6666 11.5101 13.5963 11.6797 13.4713 11.8047C13.3463 11.9298 13.1767 12 12.9999 12H0.999919C0.823108 12 0.653538 11.9298 0.528514 11.8047C0.40349 11.6797 0.333252 11.5101 0.333252 11.3333V0.666667C0.333252 0.489856 0.40349 0.320286 0.528514 0.195262C0.653538 0.0702379 0.823108 0 0.999919 0H12.9999C13.1767 0 13.3463 0.0702379 13.4713 0.195262C13.5963 0.320286 13.6666 0.489856 13.6666 0.666667V2.66667ZM12.3333 9.33333H8.33325C7.4492 9.33333 6.60135 8.98214 5.97623 8.35702C5.35111 7.7319 4.99992 6.88406 4.99992 6C4.99992 5.11595 5.35111 4.2681 5.97623 3.64298C6.60135 3.01786 7.4492 2.66667 8.33325 2.66667H12.3333V1.33333H1.66659V10.6667H12.3333V9.33333ZM12.9999 8V4H8.33325C7.80282 4 7.29411 4.21071 6.91904 4.58579C6.54397 4.96086 6.33325 5.46957 6.33325 6C6.33325 6.53043 6.54397 7.03914 6.91904 7.41421C7.29411 7.78929 7.80282 8 8.33325 8H12.9999ZM8.33325 5.33333H10.3333V6.66667H8.33325V5.33333Z"/>
</svg>
